<mxfile host="Electron" modified="2023-08-27T03:46:28.837Z" agent="Mozilla/5.0 (Windows NT 10.0; Win64; x64) AppleWebKit/537.36 (KHTML, like Gecko) draw.io/21.6.8 Chrome/114.0.5735.289 Electron/25.5.0 Safari/537.36" etag="KuO-BvfEBkBFF2t-ta2H" version="21.6.8" type="device">
  <diagram name="Trang-1" id="tOTE119o6y39baAkqeYi">
    <mxGraphModel dx="782" dy="547" grid="1" gridSize="10" guides="1" tooltips="1" connect="1" arrows="1" fold="1" page="1" pageScale="1" pageWidth="1200" pageHeight="1920" math="0" shadow="0">
      <root>
        <mxCell id="0" />
        <mxCell id="1" parent="0" />
        <mxCell id="IFqryok0byd0GUK2o1Lt-2" value="" style="shape=image;verticalLabelPosition=bottom;labelBackgroundColor=default;verticalAlign=top;aspect=fixed;imageAspect=0;image=https://cdn-icons-png.flaticon.com/512/5044/5044729.png;" parent="1" vertex="1">
          <mxGeometry x="272" y="205" width="70" height="70" as="geometry" />
        </mxCell>
        <mxCell id="IFqryok0byd0GUK2o1Lt-5" value="" style="shape=image;verticalLabelPosition=bottom;labelBackgroundColor=default;verticalAlign=top;aspect=fixed;imageAspect=0;image=https://cdn-icons-png.flaticon.com/512/2355/2355692.png;" parent="1" vertex="1">
          <mxGeometry x="702.87" y="307" width="62" height="62" as="geometry" />
        </mxCell>
        <mxCell id="IFqryok0byd0GUK2o1Lt-11" value="" style="endArrow=classic;html=1;rounded=0;" parent="1" edge="1">
          <mxGeometry width="50" height="50" relative="1" as="geometry">
            <mxPoint x="360" y="240" as="sourcePoint" />
            <mxPoint x="470" y="240" as="targetPoint" />
          </mxGeometry>
        </mxCell>
        <mxCell id="K0Yor81gI7pNhZ5WIHlw-43" value="&lt;font style=&quot;font-size: 13px;&quot;&gt;2a) Gửi tới HPU&lt;/font&gt;" style="edgeLabel;html=1;align=center;verticalAlign=middle;resizable=0;points=[];fontSize=13;labelBackgroundColor=none;" parent="IFqryok0byd0GUK2o1Lt-11" connectable="0" vertex="1">
          <mxGeometry x="-0.8434" y="-1" relative="1" as="geometry">
            <mxPoint x="45" y="19" as="offset" />
          </mxGeometry>
        </mxCell>
        <mxCell id="IFqryok0byd0GUK2o1Lt-29" value="&lt;font style=&quot;font-size: 13px;&quot;&gt;DApp của LPU&lt;/font&gt;" style="text;html=1;strokeColor=none;fillColor=none;align=center;verticalAlign=middle;whiteSpace=wrap;rounded=0;fontFamily=Tahoma;fontStyle=1;fontSize=13;" parent="1" vertex="1">
          <mxGeometry x="267.25" y="277" width="79.5" height="30" as="geometry" />
        </mxCell>
        <mxCell id="IFqryok0byd0GUK2o1Lt-31" value="&lt;font style=&quot;font-size: 13px;&quot;&gt;LPU&lt;/font&gt;" style="text;html=1;strokeColor=default;fillColor=none;align=center;verticalAlign=middle;whiteSpace=wrap;rounded=1;fontFamily=Tahoma;fontStyle=1;fontSize=15;" parent="1" vertex="1">
          <mxGeometry x="80" y="228.52" width="49.5" height="22.96" as="geometry" />
        </mxCell>
        <mxCell id="IFqryok0byd0GUK2o1Lt-34" value="&lt;font style=&quot;font-size: 13px;&quot;&gt;EMR được yêu cầu&lt;/font&gt;" style="text;html=1;strokeColor=none;fillColor=none;align=center;verticalAlign=middle;whiteSpace=wrap;rounded=0;fontFamily=Tahoma;fontStyle=1" parent="1" vertex="1">
          <mxGeometry x="679" y="367.68" width="109.75" height="30" as="geometry" />
        </mxCell>
        <mxCell id="K0Yor81gI7pNhZ5WIHlw-2" value="" style="shape=image;verticalLabelPosition=bottom;labelBackgroundColor=default;verticalAlign=top;aspect=fixed;imageAspect=0;image=https://cdn-icons-png.flaticon.com/512/5044/5044729.png;" parent="1" vertex="1">
          <mxGeometry x="487" y="207" width="70" height="70" as="geometry" />
        </mxCell>
        <mxCell id="K0Yor81gI7pNhZ5WIHlw-21" value="&lt;font face=&quot;Tahoma&quot;&gt;Lấy dữ liệu&lt;/font&gt;" style="html=1;shadow=0;dashed=0;align=center;verticalAlign=middle;shape=mxgraph.arrows2.twoWayArrow;dy=0.53;dx=21.67;fillColor=#d5e8d4;strokeColor=none;" parent="1" vertex="1">
          <mxGeometry x="590" y="367.04" width="89" height="24.28" as="geometry" />
        </mxCell>
        <mxCell id="K0Yor81gI7pNhZ5WIHlw-22" value="" style="group" parent="1" connectable="0" vertex="1">
          <mxGeometry x="375" y="111" width="100.04" height="55" as="geometry" />
        </mxCell>
        <mxCell id="K0Yor81gI7pNhZ5WIHlw-13" value="" style="verticalLabelPosition=bottom;verticalAlign=top;html=1;shape=mxgraph.basic.donut;dx=10;strokeColor=none;fillColor=#10739E;fontSize=10;align=center;fillOpacity=20;rotation=-180;" parent="K0Yor81gI7pNhZ5WIHlw-22" vertex="1">
          <mxGeometry y="8.768115942028984" width="43.842231075697214" height="43.84057971014493" as="geometry" />
        </mxCell>
        <mxCell id="K0Yor81gI7pNhZ5WIHlw-14" value="" style="verticalLabelPosition=middle;verticalAlign=middle;html=1;shape=mxgraph.basic.partConcEllipse;startAngle=0;endAngle=0.65;arcWidth=0.2;strokeColor=none;fillColor=#10739E;fontSize=22;fontColor=#10739E;align=center;fontStyle=1;whiteSpace=wrap;rotation=-180;" parent="K0Yor81gI7pNhZ5WIHlw-13" vertex="1">
          <mxGeometry width="43.842231075697214" height="43.84057971014493" as="geometry" />
        </mxCell>
        <mxCell id="K0Yor81gI7pNhZ5WIHlw-18" value="&lt;font style=&quot;font-size: 13px;&quot;&gt;VTK&lt;/font&gt;" style="text;html=1;strokeColor=none;fillColor=none;align=center;verticalAlign=middle;whiteSpace=wrap;rounded=0;fontFamily=Tahoma;fontStyle=1" parent="K0Yor81gI7pNhZ5WIHlw-22" vertex="1">
          <mxGeometry x="47.82788844621515" y="31.08695652173913" width="52.212111553784865" height="23.913043478260867" as="geometry" />
        </mxCell>
        <mxCell id="K0Yor81gI7pNhZ5WIHlw-20" value="" style="shape=image;verticalLabelPosition=bottom;labelBackgroundColor=default;verticalAlign=top;aspect=fixed;imageAspect=0;image=data:image/png,iVBORw0KGgoAAAANSUhEUgAAAgAAAAIAEAYAAACk6Ai5AAAAIGNIUk0AAHomAACAhAAA+gAAAIDoAAB1MAAA6mAAADqYAAAXcJy6UTwAAAAGYktHRAAAAAAAAPlDu38AAAAJcEhZcwAAAGAAAABgAPBrQs8AAAAHdElNRQfnBAUOMgzrk+I4AAB9f0lEQVR42u3deYDNZf//8fd1ZrMTEVFRqGTfspdlFmaxZIlKVJqtiESL7JWRWxHDRLYWYcKsZkMKSXZFSZSsUdkZM/O5fn9k3H371Z1l5lyfc87z8df3e983XuPjLK/3dX2ujwgAAAAAAAAAAAAAAAAAAAAAAAAAAAAAAAAAAAAAAAAAAAAAAAAAAAAAAAAAAAAAAAAAAAAAAAAAAAAAAAAAAAAAAAAAAAAAAAAAAAAAAAAAAAAAAAAAAAAAAAAAAAAAAAAAAAAAAAAAAAAAAAAAAAAAAAAAAAAAAAAAAAAAAAAAAAAAAAAAAAAAAAAAAAAAAAAAAAAAAAAAAAAAAAAAAAAAAAAAAAAAAAAAAAAAAAAAAAAAAAAAAAAAAAAAAAAAXB1lOgAAAAAA1xW2NqHFezElS6of/T7Ovj801MqRiqph27bqbfW09K9fX6bLu2rlHXfIWvlQH7npJlkvt8o8b2/TuWGGHi9z5FxOjjot76vxJ0/KFtVVvH78USbLAd1w2zaJFhFZtUqaXyjp2yElJbFV5/VPDj9zxnRud8EAAAAAAMBV67I7a960JjVrWr/mbXF8PmyYBMlmdb5PH2knI2VR0aKm88FNlJYOcvz8eQmXwXrYwoVWL9XP0SYmJvlQQMOIjd9/bzqeq2IAAAAAAOAf9ejxReXJzYoWzQ4+E1500rhxuqH+RjYMHKhGyBNS3MfHdD54hvydA3KL1FJT3n77dAXfkX4HRo5co9qq/uriRdP5XAUDAAAAAAD/n7BmaQemd69eXT5Qqxzdly2TIVJJfq9d23QuQEREaslr0njDBq/ndTnHlm7dlpUPWhYefuSI6Vh25zAdAAAAAIB9hD2WdfOMsQ0ayJfqK0endeso/rClXfKKbGrWLPeQ4zNr/MaNocdWfBTbrm5d07Hsjh0AAAAAAKSzzlg0vXv9+vpW/bVjQlaWNJFWklmunOlcwFU5Ld+qwYcP58V5l9ZLmjZNubt9v8jQQ4dMx7IbdgAAAAAAHoziD7dQSu7Rb916q+NsbiWpnpCQf3aF6Vh2wwAAAAAA8EAhm9K6xsU1bGit11UdB1eupPjDHagxIvJpo0YXS58ZVCTuxRdN57EbBgAAAACAB8lf8XeEqtpW+4wMFSMn5fGyZU3nAgqSCtb3qvbPP9/1eFrXuLhKlUznsQsGAAAAAIAHYMUfHmWu+Mq44sXzYh0pVvCrr5qOYxcMAAAAAAA3xoo/PFpd/YnU79s3bG1Ci/diSpY0Hcc0BgAAAACAG2LFH5ArOwHU0iI1c1/q1Ml0HNMYAAAAAABuJL/4q2z1ojU3M5MVf0BEN5De+sF27UznMM3bdAAAAAAAN+7Pj/Oz2mdkSBM5KRbFHxARkW/kNR1Tt66IiDQxHcYcdgAAAAAALoyt/sBViJFBsvPOO03HMI0dAAAAAIALYsUfuAZDpKrcUbq0/Md0ELPYAQAAAAC4kD8Xf8eErCxW/IGr8L2ckD1+fqZjmMYAAAAAAHABFH8AN4oBAAAAAGBjFH8ABYUBAAAAAGBDFH8ABY0BAAAAAGAjFH8AhYUBAAAAAGADFH8AhY0BAAAAAGAQxR+AszAAAAAAAAyg+ANwNgYAAAAAgBNR/AGYwgAAAAAAcAKKPwDTGAAAAAAAhYjiD8AuGAAAAAAAhYDiD8BuGAAAAAAABYjiD8CuGAAAAAAABYDiD8DuGAAAAAAAN4DiD8BVMAAAAAAArgPFH4Cr8TYdAAAAAHAlFH8nOSDT1NiTJ3VFq03egoCApLSOL0T7f/WV6Vhcf7gydgAAAAAAV4Hi5yQUf6DQMAAAAAAA/geKn5NQ/IFCxwAAAAAA+BsUPyeh+ANOwwAAAAAA+BOKn5NQ/AGnYwAAAAAACMXPaSj+gDEMAAAAAODRKH5OQvEHjGMAAAAAAI9E8XMSij9gGwwAAAAA4FEofk5C8QdshwEAAAAAPALFz0ko/oBtMQAAAACAW6P4OQnFH7A9BgAAAABwSxQ/J6H4Ay6DAQAAAADcCsXPSSj+gMthAAAAAAC3QPFzEoo/4LIYAAAAAMClUfychOIPuDwGAAAAAHBJFD8nofgDbsPbdAAAAABX17F66p6pQaVKeb/mXcW3VnCwnLe89eh27dQZR1dVrV49aaiXSV7VqrqUPKZHlCmjRsgTUtzHx3RuV6c76z/+jybSSjJNp3E/eriUkfm//ab9tLca7e+f3LjjC9H+W7aYzhWyKa1rXFzDhtZ6XdWam5mpmkgZySxb1nQuwBUo0wEAAABcTZfdWfOmNalZ03o2r63XoOHDpZJUkX0PPyynJEvKFytmOh9wI/5U/Cc4+vv7JzcOWhYebp/ir7LVi9bczEwVIyflcYo/rk1iYmBgZKTy2B7MDgAAAIB/0aPHF5UnNytaNDv4THjRSePGWQl5WhoNGiTF5FuZ5+0tp+RbKW86JXBjKP6A+2MAAAAA8A9CKmdsmdm0Ro3sN07v0M8tXSpDpJLsrF1bRER2mk4HFAyKP+A5OAQQAADgL8Iey7p5xtgGDRyLdG3Zs26dDJFK8vvl4g+4CYo/4HkYAAAAAFyWv+Iv4XmH1eT0dJkoq/Ub5dncD7dC8Qc8FwMAAADg8fLv8Xes0Tv0kKVLKf5wRxR/z5Z//U3ngFkMAAAAgMfLP9yPrf5wRxR/z/bX6286D8xiAAAAADxW/uP85Ki+TRoNGmQ6D1CQKP6eza7XH2bxFAAAAOCxrGfz2noNGj78yuP8ADdg1+JH8XcOu15/2AMfdAAAwON0rJ66Z2pQqVJSSarIvocfllPyrXDHP1zdAZmmxp48KeOsNnkLgoKS0zoui/Q3X/w664xF07vXr69v1V9b7TMypImcFIviX+Bsev1hLwwAAACAx/F+zbuKb63gYPlQZ+nyxYqZzgPciD+t+Hqr0f7+yY07vhBtg+KXv+JvrddVrbmZmaqJlJFMin9Bs+v1hz1xBgAAAPA85y1vPbpdO9MxgBth163ebPV3Drtef9gbOwAAAIDHUWccXVW1evVE9EA93nQa4BrZdKs3W/2dxKbXH66BAQAAAPA8e/Uh/XC1aqZjANfCrlu92ervHHa9/nAtDAAAAIDnSVaHJLVUKamtRWqbDgP8C5uu+LLi7yQ2vf5wTZwBAAAAPE9t/YEM8/U1HQP4ny4XP13RapO3ICAgKa3jC9H+X31lOtafi79jQlaWNJFWklmunOlcbsem1x+ujQEAAAAAYCc2LX4Ufyex6fWHe2AAAAAAANiBTYsfxd9JbHr94V4YAAAAAAAm2bT4UfydxKbXH+6JAQAAAABggk2LH8XfSWx6/eHeGAAAAAAAzmTT4kfxdxKbXn94BgYAAAAAgDPYtPhR/J3EptcfnoUBAAAAAFCYbFr8KP5OYtPrD8/EAAAAAAAoDDYtfhR/J7Hp9Ydn8zYdAAAAAHAneriUkfm//ab9tLca7e+f3LjjC9H+W7aYzhWyKa1rXFzDhtZ6XdWam5mpmkgZySxb1nQud2P36y9jRSzLdBqYwgAAAAAAKAiXV3xlnNUmb0FQUHJax2WRNih+f17xt9pnZEgTOSkWxb/Auc71F8k0nQqmMAAAAAAAbkRRWSjTjh2TOl5f6MiOHZPeD0yK9t+61XQsVvydw+4r/lx//BlnAAAAAADXQc+SDer1bdvyznp9r6NbtEh8v8OJyJH2Kf4qW71ozc3MVDFyUh6n+BW0PxX/CY7+/v7JjYOWhYfbp/hz/fF32AEAAAAAXI2v1aMy8dIldUI6qJ5vvXWqgs9HfgdGj16T0nZUf3Xxoul4FD/noPjDlbEDAAAAAPg7/eWSvHrunOxQQ2XprFmObrnrHC/WqpVwOmBhRMyLL65RbRXF33NQ/OEO2AEAAAAAz3J5JV/265ny6smTUk6OS/T+/fqoOqi/27pVIqyy6tfVq4t86DfYejA1dcmPbUOj48+elUlS006Hp1H8nIPiD3fCAAAAAMDDJCYGBkZGKmU6hw08JE+IyInL/5+3iNz+f/77IaYD/h1O9XcS1znVn+t/NWrIzVIzO9t0DNMYAAAAAAAugFPdnYNT/d3UZPlRfjp1ynQM0xgAAAAAADbGiq+TsOLv3obLFKmzb59MMB3ELA4BBAAAAGzozyu+joMrV0oTaSWZ5cqZzuVu8lf8rdnaW41u3z4preML0f5ffWU6F9e/YOnxqo2+Zds20zlMYwAAAAAA2AiHuzkHh/t5mMuHe5qOYRq3AAAAAAA2wFZvJ2Grv2cpLR3k+PnzRU76BVivpaaKTQ/3dBZ2AAAAAAAGsdXbOdjq76ECJEt9+sEHS+Lbquj4s2dNxzGNAQAAAABgAFu9nYOt/h7qa/WoTLx0ybE9r5rqNXGi6Th2wQAAAAAAcCKKn3NQ/D2bOiEdVM+33lo+qVPN8PAffjCdxy44AwAAAABwAu7xdhLu8fdsqTJFpuzc6du15PbzZcaMkSWmA9kLAwAAAACgEP35Hm9rbmamaiJlJJPiV9D+tOLvrUb7+yc37vhCtA2KP9ffSYrKQpl27FheoNcpPbBLlyVLmh8aEnXhgulYdsMAAAAAACgEbPV2Drb6e7b86+9ooTpa9wYFpagO86Kj9u0zncuuGAAAAAAABYit3k7CVn/P9pfrn5DW8YVo/23bTMeyOw4BBAAAAArAn4ufY0JWFo9zKySXi5+uaLXJWxAQYJfH+XH9ncSm199VMAAAAAAAbgDFz0lsWvy4/k5i0+vvahgAAAAAANeB4uckNi1+XH8nsen1d1WcAQAAgBvoWD11z9SgUqW8X/Ou4lsrOFjOW956dLt26oyjq6pWr5401Mskr2pVXUoe0yPKlFEj5Akp7uNjOjfgijjV3Tk41d+z2fX6uzplOgAAALh2XXZnzZvWpGZN69m8tl6Dhg+XSlJF9j38sJySLClfrJjpfLC3xMTAwMhIxffAa8Sp7s7Bqf6eza7X312wAwAAABfQo8cXlSc3K1o0O/hMeNFJ48ZZCXlaGg0aJMXkW5nn7S2n5Fspbzol4J4ofs5h1+LH9XcOu15/d8MAAAAAGwupnLFlZtMaNbLfOL1DP7d0qQyRSrKzdm0REdlpOh3g3ih+zmHX4sf1dw67Xn93xSGAAADYUNhjWTfPGNuggWORri171q2TIVJJfr9c/AEUqvzXH8WvcNm1+FH8ncOu19/dMQAAAMBG8lf8JTzvsJqcni4TZbV+ozyb+wEnCGuWdmB69+rV5VJeiCxasYLiVzjsWvwo/s5h1+vvKbgFAAAAG3hAr9ZzdZEijnWXvr34xJIlMlFWS3+KP+AM+a8/WXfp24tPxMfLROktz9xyi+lcbufy49xknNUmb0FQUHJax2WRNjjV/c+P87PaZ2RIEzkpFsW/wNn0+nsaBgAAANhA6fk54y6uGz9elsr90rRePdN5AE9SpmGO10WfceP0bbJC3uH1V9Ds+jg3HufnHHa9/p6KWwAAADAo/3F+clTfJo0GDTKdB/AkVx6nOV/3kAm8/gqaXbd6s9XfOex6/T0dOwAAADDIejavrdeg4cOvPM4PgNPkbcjt47XyhRfUMlVJPvTxMZ3HXdi1+FH8ncOu1x9/4IsGAAAGdKyeumdqUKlSUkmqyL6HH5ZT8q1wxz/gFGFrE1q8F1OypMQpr0tv9+kjIsLrrwDY9B5v7vF3Eptef/xfDAAAADDA+zXvKr61goPlQ52lyxcrZjoP4En0oaJZOcdCQtQpnSU1eP3dKLve4809/s5h1+uPv8cZAAAAmHDe8taj27UzHQPwROqS/ly2Pfig6Ryuzq5bvdnq7xx2vf743xgAAABggDrj6Kqqcdo4YEQ16W+l1qplOobL+u9W78+scUFBdil++Vv9HaGqttU+I4PiX0hsev1xdbgFAAAAE/bqQ/rhatVMxwA80jEZpMbdcouIiFQxHcZ12HWrN1v9ncOu1x/XhgEAAAAmJKtDklqqlNTWIrVNhwE8jENqSdytt4qIyDjTYVyATQ9343A/J7Hp9cf14RYAAABMqK0/kGG+vqZjwMPUkJulZna26Rim6QBJlblam85he5eLn65otclbEBCQlNbxhWj/r74yHevPxd8xIStLmkgrySxXznQut2PT648bww4AAAAATzFZfpSfTp0yHcM0lSZVZcORIyIiUqVGDdN57MauW73Z6u8cdr3+KBjsAAAAAPAUw2WK1Nm3z3QM03Qd9br4Hz1qOoft2PRwNw73cxKbXn8ULHYAAAAAeAgt4i0btm83ncO4ObqR7Ny1S0REvFu3Nh3HNLuu+LLi7xx2vf4oHOwAAAAA8BDqGzVcO1auNJ3DNFVOHZfETz81ncM0uz7HPb/4q2z1ojU3M5MV/8Jh1+uPwsUOAAAAAHfXXy7Jq+fO+X3oE6IfXLHCdBzTLgSIFH8/Kalodbl0rva5czJXfGVc8eKmczmNTU9151R/J7Hp9YdzsAMAAADA3Q1WL0uDjz5aEt9WRcefPWs6jmmZ9QJ29q147lz+34vpPM6Sv+JrzdbeanT79nY51f3PW/0dB1eu5FT/wmHX6w/nYgAAAADgrr5Wj8rES5fy7nOU0l0nTDAdx26sHJmvTr35Zv7fk+k8hcWuW73Z6u8cdr3+MIMBAAAAgJvS7+lPZerkySkpHdZFRXH6/18lHwpoGLHx+++lt3VUmr/9tuk8Bc2uxY/i7xx2vf4wiwEAAACAu3lbDZWlX3yROyDPJ2f66NGm49hdziLrh5zfRo7Us2SDen3bNtN5bphNH+fG4/ycxKbXH/bAAAAAAMBd7JHi0vDnn3M35dxtle7WbcXeTjUHpmVnm45ld/l/T15v5vVWI7p3l6KyUKYdO2Y617Wy6z3e3OPvHHa9/rAXBgAAAACu7nLxVyMc5x1bg4NTewbHR8cfPWo6lqtZPqlTzfDwH36wfpFtqldgoMsMAvqpodLq6FFHC/WjVaV9e7us+LLV3znY6o9rwQAAAADAVeVv9R+b+7b1ZtOmCY/6B4RH7NxpOparS14duC1i5PbtjtvyXnYMbNlShsntsnH7dtO5/ir/lgV9SMT7oRYtElRAr+h487cwUPydg+KP68EAAAAAwFXkn1bvI7G6xxtv5ATkfpLj1bYtK/6FI39HwKmWvvcUmdOsmdTRHeTziRONPTXg8p+rPlXz1I8xMacr+I70O9C8edKzATsH7Nm/3/TfF8XfOSj+uBHKdAAAADxRWFh6+owZWpvOAZvrL5fk1XPn5Kz4qroffpj3sddYq3tMDKf6mxXWLO3A9O7Vq8tRR7Dj1LBh0lpvk9aPPCKnJEvKFytWYH9Qaekgx8+f15XFX256/31rp1e29po40W7Xn+LvHBR/FAQGAAAAGMAAwMPlryDv1zPl1ZMnpZwcl+j9+/VRdVB/t3WrRFhl1a+rVxc56TfYei01dUl8WxUdf/as6dj4ez26r9bTu5cocbFM9luOVzp1kptVsqxt106eUJulTq1aqq94yZkKFfRK3UukcuX8X6faq0Uihw7pBZInJX/5Re6UZ/Wd33yjukprSVq16sJ4GVriodTUzHoBO/tWPHfO9M/5VxR/56D4oyAxAAAAwABPHwAkJgYGRkYqvocALij/cX76Vv21Y0JWFqf6F5LLj/PTFa02eQsCAjjVHwWBMwAAAAAA/CuKv5NQ/FGIGAAAAAAA+EcUfyeh+MMJGAAAAAAA+P9Q/J2E4g8nYgAAAAAA4AqKv5NQ/GEAAwAAAAAAFH9nofjDIAYAAAAAgAej+DsJxR82wAAAAAAA8EAUfyeh+MNGGAAAAAAAHoTi7yQUf9gQAwAAAADAA1D8nYTiDxtjAAAAAAC4MYq/k1D84QIYAAAAAABuiOLvJBR/uBAGAAAAAIAbofg7CcUfLogBAAAAAOAGKP5OQvGHC2MAAAAAALgwir+TUPzhBhgAAAAAAC6I4u8kFH+4EQYAAAAAgAuh+DsJxR9uiAEAAAAA4AIo/k5C8YcbYwAAAAAA2BjF30ko/vAADAAAAAAAG6L4OwnFHx6EAQAAAABgIxR/J6H4wwMxAAAAAABsgOLvJBR/eDAGAAAAAIBBFH8nofgDDAAAAAAAEyj+TkLxB65gAAAAAAA4EcXfSSj+wP+HAQAAAE4Ueix9zMzb/P1N5wDgfCGb0rrGxTVsaK3XVR0HV66k+BcOPVzKyPzffrNma281un17ij/wX96mAwAA4Anyi7+6SzL09oQEaSfNZJHpVACc4c8r/lb7jAxpIifFKlvWdC63c3nFX8ZZbfIWBAUlp3VcFum/ZYvpWICdMAAAAKAQhT2fvnnmujZtZL0c1p2XLfuj+BctajoXgMLHVn8nYas/cNW4BQAAgEJwpfi3ksO6c2qqzBVfGVe8uOlcAAofxd9JKP7ANWMAAABAAaL4A56L4u8kFH/gunELAAAABaBzVtrCGTe3bm01l9n6t5QU1Vu6UPwBz0DxdxKKP3DDGAAAAHADQt/JqDPDv107PV/3lNZJSWqqlJWDxYqZzgWg8P35VH9rbmamaiJlJJPD/Qpa/qn+2k97q9H+/smNO74QzeF+wHVhAAAAwHX474q//kwGJiRIpmRR/K/CKhkrvS5cEBGRSNNhgOvDqf5Owqn+QIFjAAAAwDUIW5t+6/SP27bVcdJT9iQns+J/bfQP8qEMPnlSbpGqprMA14oVf+dgxR8oPAwAAAC4CldW/BvIZ1I8MVGdkiwpT/G/ZqdUPem/d6+IiMw3HQa4Oqz4Owkr/kChYwAAAMD/ELIpMyNuZqtW1r3WMqtyaqrqLV3kYIkSpnO5KvWL3K6iNm8WkZ2mswD/hsP9nITD/QCn4TGAAAD8jc56hZ6hH3zQ8bOVbY1IS6P4FwydrMvryJUrTecA/pc/b/V3HFy5kuJfOPK3+luztbca3b49xR8ofOwAAADgT66s+J+3oqzkpCQ1l8f5FYj71SNS9vffc+fmrs+Zm5kpIjVNRwL+iq3+TsJWf8AYBgAAAMh/i7+611pmVV6xghX/AnbeOiYJs2at2NvJa2BadrbpOMCfsdXfSdjqDxjHAAAA4NHCnk/fPHNdmzbys3XY6pyaKmNZ8S9Q2WqoLD1zJrde7t1W6bfeMh0H+DNO9XcOTvUH7IMzAAAAHin/VH89Vmbr31JSZK74UvwLnj6vGyk1dmxqz+D46PijR03nAUT+W/xVtnrRmpuZqWLkpDxO8S9ofyr+Exz9/f2TGwctCw+n+AMmsQMAAOBRwiplTJ2xt2VL/aa8LpEpKcpPT2KrfyF4VGZJxJo1RZac6lm23Ftvicg8yTAdCp6Oe/ydhHv8AdtSpgMAAOAM+cVf6sosiVyxQvz0JOlWsqTpXO5Gf6yGytIffpAzXkW9/9OyZdIt7TcOqHvsmOlc8Gzc4+8k3OMP2B63AAAA3Fr+4X56r94tu9PSKP6FpJFkSuaBA/KeiPdP/v4Uf9gBj/NzDh7nB7gOL9MBAAAoDJ2HpPeLvalFC/WxzJNTK1ao5TJQKlP8C9weKS4Nf/7ZUTWvjaNEu3aJrwa9+vT8fftMx4Jny1/xV41F5OnMTLVfKkhJin+By9/qv8US653AwORhHadG9ty82XQsAP+MWwAAAG4lv/jrb9Rm1ZgV/0KTX/xD8io4trVtu3xSp5rh4T/8YDoWPBtb/Z2Erf6Ay2IAAABwCxR/J6H4w4Yo/k5C8QdcHgMAAIBLo/g7CcUfNkTxdxKKP+A2OAMAAOCSrhT/e2Sc+nrFCtknDcRRqpTpXO5Gj1V95PWDB70u5g1y1KT4wx4o/k5C8QfcDjsAAAAuJaR32l0zk5o3d7RVn+qGaWmSLLskkeJf0PKLv4qwtlr3t22buCHo9uj4vXtN54Jno/g7CcUfcFsMAAAALoHi7xwUf9gRxd9JKP6A22MAAACwNYq/c1D8YUcUfyeh+AMegwEAAMCWKP7OQfGHHVH8nYTiD3gcBgAAAFvp0iU9PTa2USOriXpElcvMlC/1h/LbTTeZzuV2+qmh0uroUa9X1V2Wb7t2y77xXx599+7dpmPBs1H8nYTiD3gsBgAAAFug+DsJxR82RPF3Eoo/4PEYAAAAjKL4OwnFHzZE8XcSij+AyxgAAACMoPg7SVFZKNOOHfP62nHSWtq2LcUfdkDxdxKKP4C/8DYdAADgWUI2pXWNi2vY0EpXj1hlKP6F5nLxV4fyXlZN2rVb9k1gTYo/TKP4OwnFH8A/cJgOAADwDPnFX2WrF625FP9C85fin7C2U82Iebt2mY4Fz0bxdxKKP4B/wS0AAIBC9dfir2LkpDxetqzpXG6H4g8bovg7CcUfwFViAAAAKBQUfyeh+MOGKP5OQvEHcI24BQAAUKDCHsu6ecbYBg0o/oWM4g8bovg7CcUfwHViBwAAoEDkF38dkZciqVlZFP9CQvGHDVH8nYTiD+AGMQAAANwQir+TUPxhQxR/J6H4AyggPAYQgDE9enxReXKzokUvHfl9dbF7qlWT7t5nZVfVqnqzXqRDKlaUcBmnh5Urp2vIG44a5curR6SffqNcOQlUITK/XDlprn/VSeXK6Tzpos6WK6e85ITs8PO78gesUavk+J9Oma+l50q0r6/MFV8ZV7x4/n+sZ6mhUs+y1Gw5Ij+fOnXlP39Qp8hbWist/5HXT56U12Wn/HDqlPST++Sp06e1lobidfq0PKjGSvHff3cEySW58MsvUkl/JusOH7bmqsX6pePH9Ri10fHOkSPez6qI3H4//5wdeqmFVe6nn1bs7VRzYFp2tunrcL26dElPj41t1Mi6x3pEyl3e6l+eU/0LXD81VFodPWrdrqMdjrZtkxt3qhke/u23pmPBs115nOd6XdWam5mpmkgZyWTwV9D0cCkj83/7TftpbzXa3z+5cccXov23bDGdC4DrYgcAgBv2gF6tR2lv71IDst8qv+vuu9Xdjrlez9WpI49b76ov69SR9ipZJ995pwTL51K0alVpqn6XIlWryjw9SdZWrGg6v7PlDxzkiByWXocPq7PaT3//449SVUqqx/fulSYqWl7bvVslyCxVdvdutTj3E7Vk1656b35Z4/DT+/ePUWPUGGVZpvJfKf5N1COqHI/zKzSXi7/Xq+ouy7ddu2Xf+C+Pvnv3btOx4Nk43NM5/lT8Jzj6+/snNw5aFh5O8Qdw4xgAAPhHHaun7pka5Ofnc847zWda48YySrap3fffL1t0Ux1St64EqBfl1jp15Au9Uj647z75Xk7Inj+twKNgrZKx0uvCBSkij0nlHTv0ZzJC1dm0SUap6frLTZscndVNjrjNm30Tfj95U9ldu5Ys6dmzZ8+8vIL64/O/+DvSHZ9bZbKyKP6FhOIPG6L4OwfFH0BhYwAAeLA/Cn6pUr6/ON7zDm3a1DqlJqioVq1UEVVXzrVsKSt1L3msVSuZKE0koEgR03lxlfrLJXn13DlZKmtl4LZtKkEdUOfWrhWxbrduz8ryDSz9wcX3161bsqT5oSEbLlz4t9+Oe3ydJEnOit8vv+gn9U9597drlzQ7aMgz933zjelY8Gy8/p2Ee/wBOAkDAMCNPT1g01dxM318jr17vLEV3rKllPbqo14MCtI95Wsd3bGj/KInSUrduqZzwslqyM1SMztbqsjncn7dOpmoHHJverp1j56jPkpPT14dsDX81R07Qo+lLZzRvk4d2eu4S51fvZoVv0LC4X6wIVb8nYMVfwDOxgAAcAOdFqd0n969YkWfBJ9JjpSQEF1WpurDHTtKHT1Yne/QQZJllySWKmU6J1yDniV3y4YjR9QyeUIaW5akynDxrlzZdC63Q/GHDVH8nYPiD8AUBgCAC+nRI+3A7MFly2Z/qMJybwoJkaWSqSv06CE/SrI8HhQk6+VWmefN0z0AO7u81T9vvhotC9u3T+kbsDMy8+uvTceCZ2Orv5Ow1R+AYQwAABvq0T0zI25m6dIXH9DP64vdu6sQ/YB81LOnLJJGek27dhR9wAVxjz9siBV/52DFH4BdMAAAbODKY9UeEnHEP/20lJBLescjj/z1efUAXNAwaateOn48b59qpJu0a8eKP+yAFX8nYcUfgM0wAACc6MrK/kuWzrN69VIX5Hb1VVSUTJQD0rRePdP5ABSgy8Vf/ej4VE1o3z7hUf+A8IidO03Hgmej+DsJxR+ATbGFGChEIZvSZ8bF3XOPo7uabsUPGZL9nLXRSn/sMTVGmqg/Hqt3QJqaTgmgQOXf499dNdJN2rdP6eu/MyKCFX+Ylb/V31qvq1pzMzNVEykjmWz1L2h/2urvrUb7+yc37vhCtD9b/QHYBzsAgAIUsikzI25mq1aOMdZIPWrgQDkuS7V/t25SQXZKSy8v0/kAFCJW/GFDrPg7CSv+AFwEAwDgOozSo/Qo7XBsDWuZcUvsQw/JAb1QrRo2TO6Q3tKhcWPT+QA4EcUfNsThfs7B4X4AXA23AADXoHOptOGx0zt02PqJ4yZ1a0yMKL1IRjZs+EfxN50OgFNR/GFDf17xt9pnZEgTOSkWxb/AXV7xl3FWm7wFQUHJaR2XRbLVH4ALYAcA8D/kF3493vG1Y+Trr0uWHqjHN2liOhcAgyj+sCG2+jsJW/0BuDh2AAB/ElYpY+qMvS1byjqZJZFvvqmf0+3E0by5ZOl2erzpdACMqirD5esTJ3QNa5jVsEOHxFaBfaIo/jCMw/2cg8P9ALgLBgDwaMHfrZw3I6lyZe9783aLvPGGHqd/lK6PPirPySSJUuyQASByv3pEyv7+u+Mr/aG+Lyho+S0dA6Om79hhOhY8G1v9nYSt/gDcDAUHHiVkU1LDuLhixdSHvlvz8p59VsZLhLptxAjVW7rIwRIlTOcDYCN/Lv6/+vsvXx4YGBW1ebPpWPBsbPV3Erb6A3BT7ACAR+g8JL1fnKNXL8tbJVnjJ01SP+g09XKVKtJbRA6aTgfAVi5v9beydBV1S4cOiasDAyNHbt9uOhY8G1v9nYOt/gDcHQMAuKVuQal7Zj1bpUpuP6+bcu+bMUN/JFssHRKiRureprMBsDddQ+WpeRkZeam5n1xq/e23IlLTdCZ4Lh7n5xw8zg+Ap+AWALgJrbVWKnRzRsaMGQMGqM1SS3V+801Jll2SWKqU6XQAXJCX3CWP790rd8optfXJJxP/E9goouVnn5mOBc/AVn8nYas/AA/DAAAuLWRT+sy4uHvucVyUsXmPz5olE2WumtuqlelcANzIL1JH1uXl6QSZpdZMnlzkmVLvnq88atSSJc0PDdlw4YLpeHAvrPg7Byv+ADwVAwC4pLBL6fVnju3bV1JknJ4aGytzxVfGFS9uOhcA96c/VkNl6Q8/OIrm7ZCMp55KUB1VpPr0U9O54NpY8XcSVvwBeDgGAHAJocdWNp2145ZbVOe8inl93ntPKuhoHR0cbDoXAM+lZ6mhUs+yHEHyjbSZPPmWxmW/dEx7+eV3ZzVuEh6Rk2M6H1wDK/7OwYo/APyBAQBsLWRTxtjpJwMC1G26r2PQvHlqgHwnzSpVMp0LAP4/P8lCydq0Ka+K1/e6fa9eKSkd1kVF7dtnOhbsiRV/J2HFHwD+D4fpAMCf9ei+eNHiRb6+YUfS98ZunDrVsU2fdLROS6P4A7C9O6S3dGjc2KuF9Z0qt2lTyKb0mbEDunQxHQv28ufH+TkOrlxJ8S8c+Sv+1mztrUa3b0/xB4A/sAMAthC2NrPsO8tvvVU3stb49F6yRPWSw3pyixamcwHADeshopa8+65fwqmTZcOffXZJfM9ePXtdumQ6FpyLFX8nYcUfAP4ndgDAqM5ZaQtn3Ny6tfyiK3vftXkzxR+A21kions8/XR2mzILfotau7azXqFn6KpVTceCc7Di7xys+APA1WEHAIwI3ZyeHhv79NPiI3PU+WnT1Ah5Qor7+JjOBQCF7itZK/6//qoOW2Plru7deYqAe2LF30lY8QeAa8IAAE6Rf2//xellHv/1qVmz1ACdIBP79jWdCwCMqSE3S83sbEmUO3Wt8PDE7wNviqo0f77pWLgxnOrvHJzqDwDXhwEAClVwcHJybOxNN3nt8WnpWPzJJ3KvbNS92rY1nQsA7Eb3k4XSZurUhl3Xzz1aa/DgMWqMGqMsy3QuXB1W/J2EFX8AuCEMAFAoQt/JqDOrZrVqUle3zl2fkqL+I51lyb33ms4FAHanX5HJsio1VeVcPOPb+OGHE1t1Xv/k8DNnTOfC36P4OwnFHwAKBIcAokB1mZF2YEZS06ZqrW6U6/PFFxR/ALg26jUZIu06dZKjRXddevvTTzstTuk+vXvFiqZz4f/icD/n4HA/AChY7ABAgQitmb43dmPHjup+qabS4uPllGRJ+WLFTOeCTQyTtuql48elsgyRmlu3ymw9RVfftk12qixpPWyY6XjG1NEd5POJE+Wi2ibFGzSQrlJHLalfXybKav1G+fKm48EmvOQueXzv3lyVuy1vaYcOqUuDuz/z6E8/mY7lqbjH3zm4xx8ACgcDANyQsBJpDWZmd+smFRwH9T0LF0pt/YEM8/U1nQtO0kIOS7/cXH2PPCQzt2xRN6uWatb69bqX/klfWLvWWuU9VaZu2JByd/t+kaGHDv31l4eFpafPmKG16R/DlMTEwMDISPX/vQ93C0rdM+vZKlXyznqVyDvTrJmeoAJlY8uWskVul2MtW8p53V0fbNBA1sutMs/b2/TPASfZI8Wl4c8/y2zLV9fz909s1bFpVJHvvjMdy1NQ/J2D4g8AhYsBAK5L6KKM8zOH9O6t9utF+rUFCygibi5/BT9G2ojfp5/KJ3JRopOT/fo4JqoKCQlL4v0DwiNOnbrW35YBwN8PAP5NyKakhnFxxYp5WX45ukf79vo7PUm6h4TIOYnRXYODJVWGi3flyqZ/PhSSJDkrfr/8oiyVa6UGBiaogF7R8du2mY7lrrjH30m4xx8AnIIBAK5J2NR035nlBgzQvdTdOmnmTDVAT5LtDs6ScBfb1Nvy7a5d6qSUUUWSkvJWqf6qWnJyo0Zr/Q+Hr19f0KeSMwC4vgHAvwl9Km3ytG/uu09Kqucda0JC1AkZpk6EhupJKlU6NG/O69ZNXC5Mqp2Usy4GBydMDpwX9fv69aZjuQuKv5NQ/AHAqRgA4Kp0rppRZ4b/wIF6hPaXo2+/LYkSKFEFX1zgHPp5SZAeu3crL3lbl5g7V8RRMS/tww8TW/n/9myXw4edlYMBQOEMAP5J8Hcr581IqlzZ68G803LvI4/ICF1bHunfX9IlR/rdc4/pvw9cH71QlkuVs2fVVkmwzoWFJbYKPBz98OrVpnO5Krb6Owdb/QHADAoc/qfOtdNWxg7s318/p1LU6vfeo/i7mBCpJWGnT6sINU22JCRICUv0gQULEk4HToiMWrlSRCmlzBVwBgDOHQD8ky5d0tNjYxs1yusrC9UDffvKLRIpTz76KMXHxZSWDnL8/HlrkGOlo0JgYHJj/4DwiLVrTcdyFaz4Owkr/gBglPEvnrCn0GMZA2PbPfqoiKxW4+fPZ8uwizgr2TLns88kTUaq0Pfes3Zccqhb4uOTG4duCQ8/f950vL9iAGCPAcBf+W/PqLPgaPHiRe/VXufffegh/aPar9s89ZQaqhfL7tatTefDv7hfPSJlf//dytJV1Hdt2yavDtwWMXL7dtOx7IoVf+dgxR8A7MF2XzxhVsim9JmxA7p0cWSJn5q6ZAmH+9lUmKRLrNZSQl6S6JQUXcoxRrd77bWkTv7Tompu2GA63lX/GAwAbDkA+Cdhj2XdPGNsgwbqQ+tJaTB4sG6qB8miPn2kguyUll5epvPhLy4f3ukV7uiZ9+UDDyz7xn959N27d5uOZRes+DsJK/4AYCsu88UThSv0WPqYmbf5+6uJEqLnJSXJ93JC9vj5mc6FP+hZaqjUsyz1lC6uun7yib5F98xdNWZM0uygIc/c9803pvNdLwYArjUA+Kv8wwYdcxzHvPYNH65f1/dIh969GRzaix6r+sjrBw/K53Krd9E2bZKeDdg5YM/+/aZzmULxdxKKPwDYkst+8UTB6DIj7cCMpKZNrfWqsmxdvVpOSZaUL1bMdC6PN0y+koyLF1UHKSo/zpljvanmeZ+bNMndvrgzAHDtAcBfhb6TUWdWzWrVJFI652QNG6Y26CJqUL9+MlGaSECRIqbzeTwvuUse37vX6139guP9Nm2WlQ9aFh5+5IjpWM7CVn/nYKs/ANgb93R7qM56hZ6hq1a1PlUj5cXERIq/TfSRhqKSk/VWtcj7m1q1Ei4GPh+5NTra3Yo/3FP+v9Mk74DxUbdHRnqPz+vpXaVGDZWsVkmV99+/cusKzMiTH2R+9ep5j6tvLUdKSv5ZD6ZjFbb8FX9HqKpttc/IoPgXkssr/jLO+swaFxRE8QcAe2IA4GE6Vk/dMzWoVCnt4wiWexMT5YL0lmduucV0Lo/1kyyUrE2brJEO5VCtWyc+HFg+MiI0lMIPd7A0rVPNAe8cPJhgBcREhvbt68jRz8nrzZrpRXKrGsLz6o3xlrclt0GDIvfoRufmv//+KD1Kj9Lud8grW/2dhK3+AOBS3O4DH3/v6QGbvoqb6ePjs8urp88PS5dKJxkkg+rUMZ3L45yWb9Xgw4f1KBGtw8MbbFs/92j8/ffzuC54guWRQbdHhm7cmFQ0oHb4+VatRCvRVs+e0kgyJfPAAdP5PI3qIb2lVNeuWz5tsati8muvmc5TUCj+TkLxBwCXxADAQxwZ/1tr64XZs6W7xMiQ9u1N5/EYX6tHZeKlSzJM+kvRceMuTFGzi/1Ys2ZSo8DAqKh33x2jxqgxyrJMxwScSymltE5MCgiMil6yxG+n75uW4777ZLYupYa//roeL3PkXE6O6ZSeQr0lB+Xgiy+G9shYNEP362c6z/XKv8ffWq+rOg6uXEnxLxz59/hbs7W3Gt2+PcUfAFyL2xw+hb8Xmpp+V+ye555TMyVWrXzrLdN5PMZkOSI3ff21dVInOE49/jj3Qv49DgF0r0MAC0rnDzIz4mbWqaM/sgZZXvPn529ZN53L3eUPXtRp+dyqEhiY2CrwcPTDq1ebzvVvWPF3Elb8AcAtsAPATXXOSls44+bWraWKNFaJEyeazuP2Wshh6Zebm7+C6ffiqaLlVKNGFP9/kb9DwtPUkJulZna26Rh2lfCof0B4xM6dOXvyEnI+ad5cfarmqR9jYuQXqSPr8vJM53NXaoQ8IcV9fGSxVHB8vnjxlac62BQr/s7Bij8AuBcGAG4mbG1m2XeW33qrPu14XVYvXnzlCx0KR6D4yLxvv1Uz1WTH/FatEisENY84/corS+J79urZywOL7bUK0ZWl0+nTpmM43WT5UX46dcp0DLtbsbdTzYFp2dkJpwMWRsS8+KJVTbdWvVq31pPlVYncs8d0Prf1o8RI7ZtvVlpuz/t10aIe3RcvWrzI19d0rHw8zs85eJwfALgnBgBuIv8Lmm5krfHpvWSJzNOTZG3FiqZzuZ38x5gNU0PVO2+/7fdpqccuqIYNE34M2Bke8eWXpuO5Gt1OPpPq+/aZzuF0w2WK1PHAn/sGJS8M+iEi9Isv9MlLuY64Bg0kTu7Sjd55h8cLFpIsPVCPb9LkYp/SK36t/eabpuNQ/J2D4g8A7o0BgJvIfqd0oxPVJk1SveSwntyihek87kYvlOVS5exZPUpmy9kePRJbBeyM2DV48JIlzQ8N2XDhgul8rko9p1pK6vbtpnM4mxbxlg2e93MXlOTGoVvCw8+fT6wUWD2q6cCBapf85vimd2/pL5fk1XPnTOdzN+o3KSsPP/tsZ0fG8BlJXbs6+8+n+DsHxR8APAMDABcXNiata2y94GBJkVj15DPPmM7jbq5sNR6ka+Td2axZ0qHA05H7P/nEdC63ES0ismqV6RjOpr5Rw7Vj5UrTOdxFwuTAeeHWokXqnMPPMb55c/2xGipLf/jBdC63kSiBEqWUrqt3qafnzHHW2QAUf+eg+AOAZ2EA4KI6Vk/dMzWofHmp49irPpg9O/8Lmulc7kK/IpNlVWqq4y7fLy/q++9Pmh005Jn7vvnGdC534/elzw6rdHKyx6zcXv45/fx8AvTqFStMx3E3+YcH5tbN/STHq2FDaa2GytKEBNO53Mbt8oweWaZMYZ8NkH+qvyNU1bbaZ2RQ/AvJ5VP9ZZz1mTUuKIjiDwCegQGAy9Faa6V8bvYe6ntw7lzu9S8gl+8h1gkSIBFjxjRsuj7t6OLQ0ATVVg1WJ0+ajueulsS3VdHxZ89KecnUBz/+2HSeQjdYvSwNPvroys+NQvHH4YGnTzcYum7H0Yxu3bS/GipLX3uNswIKyOWzAbJXln7jRJE33iio35ZT/Z2DU/0BwLMxAHAxYWcy58zIjIqSCjpaRwcHm87j8vIfx/acXq02de+epAJVpBo9eowao8YoyzIdz1NYvVQ/R5uYmPznkJvOU+AuP+4w7z5HKd11wgTTcTxF/us46dmAnZGZI0boDbqKLHj4YY99/GQB09+qPFX+uedCNmVmxM1s1ep6fx+2+jsHW/0BACIMAFxGyKb0mXFx99wjlfQc1dj8acyuLv9QP+uCI1pVDA5OPBu0NcJv6VLTuTxV8qGAhhEbv/9ebpFaasrbb5vOU9D0e/pTmTp5ckpKh3VRUZz+b0rS7KAhkQ0WL7YWy7PW1tBQj7n1pJCoAXqSbHc4VBlrhBXx3ns9enxReXKzokWv9tdT/J2D4g8A+DMGADY3So/So7TD4bgoY/MenzVL2slIWXT1X7DwF/erR6Ts77/rp3SGkoCA5Fj/DRH3cRibXZyu4DvS78DIkVJLXpPGGzaYznPD3lZDZekXX+QOyPPJmT56tOk4+ENy44CR0WUyMnSc9a21sG1bqSrD5esTJ0znclVqiIyTGTVrZgefCS86ady4f/vfc4+/k3CPPwDgbzAAsLktHVucr3R3RIRMlLlq7vVvsfR0epbcLRuOHNFP5U3VcQ8+mP88cdO58H+tUW1Vf3XxYm7D3ApWTNeuskeKS8Offzad65qdlm/V4MOH83K8npeBPXr8cU96drbpWPi/8u99VlvyFqtzDzygx6o+8vrBg6ZzuSrdUZaIY/Dgf7olIL/461v1144JWVnc419ILhd/XdFqk7cgIIB7/AEAf8ap8TbVeUh6v9ibbrtN3yPj1Ndffy3JsksSS5UyncvleMld8vjevWqpdZcU9fdPUB1VpPrxR9OxcHVCj634KLZd3bpyxOtZ9X1KihqpP5KXq1QxnesfXR5YqBGO846twcH5p9KbjoWrc+Xxdk+K5N6Rmake1pOk2113mc7lcgLFR+Z9++2pKN+2RTY0aFByc3a3S+/WqsVW/8LFVn8AwNVgAGBTYR+nH58xMylJPpItokNCTOdxOZeLf27v3Betvq1bp/YMjo+OP3rUdCxcn06LU7pP716xovcW718cw5ctk13yimxq1sx0rivyt/pvyrnbKt2tG//eXFvX42ld4+IqVcot7thrxX/+OYOA66MjpI5uv2iRlJafVV9/f4p/4aD4AwCuBQMAm+k8JL1fnKNXL71XelvTPeCxaAWtk8RI7qFDKtxaKc+0asWKv3vpWD11z9QgPz/vB72Xe8e8/LIK1veq9s8/L3PFV8YVL+60IPmnyDfQLfRX//lPzva8N3MfHTOGrf7uJTg4q2Vs7J13ep3L6+kY8vnnUkru0W/deqvpXIAIxR8AcH0YANiE//aMOguOFi9eRMvhc02+/db2W53t5itZK/6//qruyntMjW/TJmFtp5oR83btMh0LhevKzoDdPomOt0eOlLr6E6nft2+BDwTyT4s/K76q7ocf5n3sNdbqHhPDqf6eIXhBRp0Z/rVrO+7Ss+XMmjWsZMMkij8A4EYwALCJ0KcyJsZuHzNG/aLrqfUjR5rO4zKy1VBZeuaMo4uVIgM7dFgeGXR7ZOjGjaZjwYwe3Vfr6d1LlLh0+6X+3kuDgy1fOWBNadtWzZaeMqx+fflVysv0atWkmoqQcWXKXPmF+/VMefXkSSknxyV6/359VB3U323dKhFWWfXr6tVFTvoNtl5LTV0S31ZFx589a/rnhBmhqZnPxO5p1kxlW4GqRVaW03eewKNR/AEABYEBgGHdglL3zHq2SpXc8l535Zb/7js5JVlSvlgx07ls7/IWbFVfRUhYWFjCUv9xkVPS003HAuD+Qt/JqDPDv1079aOeJy+mpsr3ckL2+PmZzgU3xan+AIACxGMADcs95DU/t8ebb1L8r46epYZKPcvS2TpbpE8fij8AZ0t6NmBnZOaqVfqUXiNl+/aVMEmXWK1N54J7yV/xt2ZrbzW6fXuKPwCgIDAAMCSkd9pdM5OaN5dBckGie/UyncdVqCTtL+FjxyYdCjwduf+TT0znAeC5kmYHDYlssHixvqAypeLrr5vOAzdxecVfxlmfWeOCgtjqDwAoSAwADFFjHCd0yZgYSZRAiVLcivFv+khDUcnJDZ5c/5+jO8aNMx0HAPI1fGbdjqMZI0fKL2q6mp6SYjoPXBRb/QEATkDxdLLOb2dsmdm0Uye9Sh/X/fmi+K8el21y8PvvVTffYRfHN22aoNqqwerkSdOxAOCvgoOTk2Njb7rJy9fnHtVv40bJkx9kfvXqpnPB5ij+AAAnYgeAk1lVdXXde9Qo0znsTi+U5VLl7Fm9Qvvk9enaleIPwO5SUkJCoqJ+/91rj2Oo9XNYmIRILQk7fdp0LtgUxR8AYAADACfp7MgYPiOpa1c1R76QIk2bms5jW/mHaQ3SNaTKk08mzQ4a8sx933xjOhYAXK1l3/gvj757924VoabJln79OCQQ/wfFHwBgEAOAQjZKj9KjtMOhn5BUqTd6tOk8tnePylR5U6bkH65lOg4AXK8EKyAmMnTZMgmWKP3etGmm88AsTvUHANgBA4BCtjWsZcYtsQ89JL/oSZJSt67pPLYVKD4y79tv/aaU/O18qZdfNh0HAAqKdehST6+tL76oJ8urErlnj+k8cK784q/99ARHf39/TvUHAJjEAKCQ6Sd1c3Vp6FDTOWyrhRyWfrm56k01yNG/X78lS5ofGrLhwgXTsQCgoCQ3Dt0SHn7+vOxxNNV7Hn9cfpE6si4vz3QuFDIe5wcAsCEGAIWks16hZ+gHH+Se//9NF1eTJSwmJuHHgJ3hEV9+aToPABSWpE7+06JqbtigdqnnVeVJk0znQSHhHn8AgI0xACgkepHjhMQ9/7zpHLY1TG6Xjdu3F1lzckS5p8aONR0HAJzlUoXcMZe2jxolqTJFpuzcaToPCgjFHwDgAhgAFLCwtSs2xl68+27dVrWTup06mc5jN3q8zJFzOTmOSXJAN3nyySXxPXv17HXpkulcAOAsK/Z2qjkwLTtbenttlD6PP57/vmg6F64TxR8A4EIYABS0R72eVKHPP68G6Emy3cHf71+o0/K53DxhwvLlgYFRUZs3m84DAKYkvt/hROTIrVvVGLmo+3FLgKvhVH8AgCuioBaQHj3SDsweXLasfKB7SYnHHjOdx270WNVHXj948EJJVa54UEyM6TwAYBd+yne5jnj9dT1L7pYNR46YzoP/jVP9AQCujAFAAbnYX7W9FNm3r0yUJhJQpIjpPLZTSR7RNV56KbNewM6+Fc+dMx0HAOxiSXxbFR1/9qyjvf5Bl37lFdN58A841R8A4Aa8TQdwF+oL2eEIeeopEVmrB5tOYx96lIg8uHlzwwrrphyL+OijJJGpokynAtxT2NqEFu/FlCypDxXNyjkWEqIu6c9l24MPSjXpb6XWqqUrShVVpEIFtVNelZsrV87/dbqOjJMThw6Jpb6TT48dkzm6kezctUuVU8cl8dNP/b702WGVTk7OL6qmf053VX/nF+2OTZk/f+s7LUMq3RwZKVl6oB7fpInpXB6Pe/wBAG6EKnaDOg9J7xd7U4sWeq/0Vq+vW2c6j22ESbrEam3VdwQ5otu0SW7sHxAesXat6ViAO+myO2vetCY1a+ZtyO3jtfKFF9Szqq3kPvKItJORsqho0QL7g0pLBzl+/rx8rurL5x9+KBWtFKv0xImJG4Juj47fu9f034O7CemddtfMpObNHe1VZ/3yunWSKIESpfi8djaKPwDADXELwA3SQ+QLFTBggOkcdqMvqEy1b+FCij9QcHr0+KLy5GZFi3ZukOGY4f3mm3k5eSu8en39tVqmVsuHTz1V4MU/3ynJkvLFikldPUm6DRggvzgaOTZ/803YK2l5M/rExDygV+u5mlufCkrywqAfIkK/+ELuUfsldMkS03k8DsUfAODGWFG4Tj26Z2bEzSxdOruo1d765fDhK1+QPd0w+UoyLl60ijiaOgLvvvuPAcCBA6ZjAa4srFnagendq1eXTSrC8fXSpdJJBsmgOnVM57qighoqwTt2OMrkfuJY0a3b8kmdaoaH//CD6ViurrNeoWfoqlX1UMcWWfXtt/K9nJA9fn6mc7krDvcDAHgCdgBcp0t+uqY1uEcPiv//pTpIUflxzhyKP3Djwh7LunnG2AYN5A410rF77VrbFf98v+hJklK3rvWz1+vW1HXrQtqm1585tl4907FcXYLqqCLVjz9KfTmhXps/33Qet8XhfgAAD8IA4DrpivpXebRnT9M5bOMXqSPr8vLUM3mhjojJk03HAVxZyKa0rnFxDRvqiLwUSc3KkgvSW5655RbTuf7V5ZyOClJfL0pP7zI0dU9c3F13mY7l6vI+9hprdY+JkRZyWPrl5prO4zbY6g8A8EAMAK5RyKbVOm7mzTdLedkhU9u2NZ3HLtRGNUV6ffQRW3+B69dZZyya3r1+fUeoqm21z8hQMXJSHi9b1nSua3Z5EGBFeK23Si9fnn92gelYriolpcO6qKh9++RD2StfxcebzuPyKP4AAA/GAOAaOS5mv6e9u3eX9XKrzPPmMYqXT/vPnSepMnXiRNNxAFeUv+JvrddVHQdXrpQm0koyy5UzneuGDZFK8nvt2tk1Tx0oeufo0abjuDqdZd2nR7/xRv77ruk8LofiDwAAA4BrpS86EvS3vXqZzmEbT0gPdS4hIaVvwM7IzK+/Nh0HcCX5xV9lqxetuZmZLrvi/28WOirKF889d+UwQ1yXpFs69olatWOHzFZ7lU5NNZ3HZVD8AQC4ggHAVeq0OKX79O4VK6oROk6Otm5tOo9dWI/oR2UKK//AtXCbrf5Xq7b+QIb5+spRR7Dj1LBhpuO4Oj1S3W4tHT/edA7bo/gDAPD/YQBwlXwSfCY5UkJCpILslJZeXqbzGHdWsmXOZ59deV41gH+VX/z1rfprx4SsLLfZ6n+1Wutt0vqRR3p0X62ndy9RwnQcV5XUyX9aVM0NG/QiuVUNWb/edB67yX+cnzVbe6vR7dtT/AEA+C8GAFdJl5Wp+nDHjqZz2IXepjOl/uzZpnMArsBt7/G/Vpcfm3qxTPZbjlc6dTIdx9Wpp+UD/dJ775nOYRudJEZyDx1y7HeccvR78EEe5wcAwP+PAcC/eHrApq/iZvr46Od0TfVG+/am8xgXIrUk7PRpnZGzztH4k09MxwHszGPu8b9WN6tkWduunekYrs7vgu8Ea8fixZKthsrSM2dM5zGugjouD3p5JTzawf/pcM6kAQDg7zAA+BfH3j3e2Apv2VINlmpSrXRp03mMKyq71GMff5zcOHRLePj586bjAHbkcff4XyO1UZ6TBffeazqHq1sS31ZFx589q0dKTVWExwPKPD1J1las2PmDrMx342rXNh0HAAA7YgDwL/QIZckjbP3Pp8s5kqyZc+eazgHYkcff43+1omW3BFSqZDqGu3BcsLrrL3hfzmfFWR/ppYGBpnMAAGBHDAD+TYwKlS0MAOQX1VuqfPddUqcO70TW+PJL03EAO6H4X6N31QeysWJF0zHcRUKHoN6RJz7/XALFR+Z9+63pPKapjWozAwAAAP4eA4B/0LF66p6pQeXLy0y5R3zYSiiT9FHt/957IkoppbXpOIAdUPyv00M6VebxPlLgEtUgdduCBaZjGLdS95LHWrX643Pcz890HAAA7IQBwD/wnu/Y4+vTooUkSqBEKWU6jzFhki6xWos4Kualffih6TiAHVD8b9AcVU+2HDliOoa78Va5n3hVev/9/75ve6iJ0kQCihTx+tjnR78uTZqYjgMAgJ0wAPgHjmccYXpFq1amcxh3Xn2nDm/alNjK/7dnuxw+bDoOYBLFv4AM0e0k5OhR0zHczdK0TjUHvHPwoCyVFTJw2zbTeUxzvKKf11mtW5vOAQCAnTAA+Af6E7lP2rZsaTqHccX03frWlBTTMQCT8h/nZ63XVR0HV66k+N8Y3U3do3/evdt0Drf1o4xQ23nfllf1q3oaAwAAAP6MAcBfXLlncLqeJy82bGg6j2k63qpkTU5NNZ0DMCG/+Kts9aI1NzOTx/kVDNVVWkvSqlWmc7grPcnxhTWQAYDskuaS17LlKD1Kj9IOvu8AACAMAP4/Pue803ymNW4s38sJ2ePBhwf1U0Ol1dGjSWlBQ6M6bNpkOg7gTPlb/R2hqrbVPiOD4l9ASksHOX7+vJ+fT4BevWKF6TjuqmHHte8cq7FxoxSVhTLt2DHTeYxJll2SWKrUjtqtulbYc/fdpuMAAGAHDAD+apRsU7vvv990DONidbJsT03l1H94Eu7xL1x6rhql+y1YsCS+rYqOP3vWdB53NUaNUWOUZUlpaSZfp6WZzmNa7pG82xyTGjc2nQMAADtgAPBXW3RTHVK3rukYpqlVKlZKJyebzgE4A/f4F7Kv1aMy8dIlq7NjtSS/+abpOB7jiKqmY7kVQNWUFyS1USPTOQAAsAMGAH91UKbIbM8dAOjxMkfO5eTozy587rsrK8t0HqAwcY+/c6gT0kH1fOutlJQO66Ki9u0zncdT+Pkp5eWVkSEt5LD0y801nccUvVqdUr/xOEAAAEQYAFzxgF6tR2lvb7lXPpA7a9UynceYfTJLvLZuTWzVef2Tw8+cMR0HKAzc4+8kqTJFpuzc6RtY8rPza8aMMR3H0yyJ9w8Ijzh1SqqrwXLnjh2m8xhjSaxeXLeuiNZaK2U6DgAAJjEAuKzE+zl1Kwbcc4+nH/6n+ksbfefataZzAIWBrf5OcvkQ0bxAr1N6YJcuS5Y0PzRkw4ULpmN5Ku3QXSTLc9/XVW/pIgdLlOjULfWT6R/efrvpPAAAmMQA4DJvh5WiX/Hcrf9X5GjlCFq3znQMoCCx1d859HApI/N/+011lRHWmI4d2fJvE6m6rlzifd2njc+d3lPvu890DgAATGIAcJkOkEOOML4Y5G32GaQzvvzSdA6gILDV30kOyDQ19uRJGWd9Zo0LCkpQAb2i47dtMx0Lf9ARXrUdX27YYDqHaTpG1uqPatc2nQMAAJMYAORrr5J18p13mo5hTJKcFb9ffkm5u32/yNBDh0zHAW4Ej/NzksvFX1e02uQtCAhISuv4QrT/V1+ZjoX/K7mxf0B4xIEDUlWGy9cnTpjOY8xXerq8cu+9pmMAAGASA4B8R+Q2CaxWzXQMU/RReUyKbN1qOgdwIyj+TkLxd00+8p5c8uD3+b7ypuzz4EE/AADCAOC/2ssGubNqVdMxTHHUUJ3VdrbswjVR/J2E4u/aiuj6cs6DBwCHpaxM89xBPwAAIiIe/zickE1JDePiihVzbPN90Jp29qwkSqBE8ZggZ9HjZY6cy8lRp+V9Nf7kSdmiuorXjz/KZDmgG27bJtEiIqtWSfMLJX07pKTweML/rWP11D1Tg0qV8n7Nu4pvreBgOW9569Ht2qkzjq6qWr160lAvk7yqVXUpeUyPKFNGjZAnpLiPj+ncsLf8w/20n57g6O/vn9w4aFl4+JYtpnPZDa8/e9Oz1FCpZ1lFok+OKPdz0aJL4nv26tnr0iXTuQAAcCaPL7pd78vsMv27e+/Nu8uKdKzatct0HvyD0tJBjp8/L+EyWA9buNDqpfo52sTEJB8KaBix8fvvTcczpcvurHnTmtSsaT2b19Zr0PDhUkmqyL6HH5ZTkiXlixUznQ+ujeL/v/H6c03WZlVeza1Z09M/PwAAnsnjbwGwBuiRXo+xJdD28r9QT5RgNffJJ9UKHaN7fvNN6LH0MTNvmzjxAb1az9VFipiOWdh69Pii8uRmRYuGzcsYO2PtpElWQp72+uybb6SYfCtnnniC4oGCQPH/e7z+3IN6UR7XpW+7zXQOAABM8DYdwDTLSx6XPpUqKZFJprPg6v1566x++YUXSte69MDFTa1bdz2e1jUurlu3ZeWDloWHHzliOmdBCamcsWVm0xo1st84vUM/t3SpDJFKsvPy46x2mk4Hd0Hx/3u8/txMBflS1bnlFhEpJpmmwwAA4FwevwNAvS4DdAiHhbm8XfKKbGrWLPeQ4zNr/MaNocdWfBTbrm5d07FuVNhjWTfPGNuggWORri171q2TIVJJfuc51ihYFP+/x+vPPTnm6y26V8WKpnMAAGCCxw8A5AkrWkYyAHAXaqT+SF6uUkWOeD2rvk9J6bQ4pfv07q73RS9/xVHC8w6ryenpMlFW6zfKlzedC+6F4v/3eP25N91AN5cprve5AABAQWAA8KU6KJ1uvtl0DBSs/EGA9xbvXxzDly3743RuPz/Tuf5N/lkGjkW6qL5vyRKKBwrF5cf5yTjrM2tcUBDF/w/59/g71ugdesjSpbz+3JMe6CguSQwAAACeiQFAoAqR+ewAcFuXbw3wftB7uXfMyy+bjvNvSs/PGXdx3fjxMlEOSNN69UzngXvJX/G3ZmtvNbp9+6S0ji9E+3/1lelcdpEdfCa86KRx49jq795UfV1RtpYpYzoHAAAmMABorn/VSQwA3N4UvV8dGDLErrcE5D9OTI7q26TRoEGm88C9sNX/f+P151n0+6qOzCxVynQOAABMYADQR9VTw8uWNR0DhUv1li5ysEQJ790+iY63R440neevrjxHfL3cKvO8Pf7pHCgYFP+rw+vPs6iT8rl8yAAAAOCZGAB8pEtKZ/d/fjwuq6s/kfp9+4atTWjxXkzJkqbj/HE2QalSUkmqyL6HHzadB26Ce/yvCq8/D/Wh3iQ/MAAAAHgmBgBPycD858nDA8wVXxlXvLhaWqRm7kudOpmO4/2adxXfWsHBckqypHyxYqbzwLVxj/+14fXnoXxlvDQxPwAGAMAEBgDfyTH5xv6nw6Ng6QbSWz/Yrp3pHHLe8tajbZADLo2t/teJ159H0gMlUkoy+AcAeCaPHwDovXJcvmUA4HG+kdd0TN26pmOoM46uqhqn/eM6sdX/hvD680xqrHqKAQAAwFN5/ABAjZYBUoIvAh4nRgbJzjvvNB1D9upD+uFq1UzHgGthq38B4fXnmV7VvfjcBwB4Ko8fAMj3ckz2sAPA4wyRqnJH6dKmY0iyOiSpHEaFq8SKf8Hi9eeZhsoTnP0DAPBUDAAAwO4uF39d0WqTtyAggBV/AAAAXA8GADXkFqmZnW06BpxssvwoP506ZTqGhOjK0un0adMxYE9s9S9kvP48E5/7AAAP5vEDAD1aZsnZnBzTOeBkw2WK1Nm3z3QMqa4qq4/37zcdAzbDVn/n4PXnme5Rt8jdDAAAAJ7J4wcAqrqUl3v4IuBptIi3bNi+3XQOmSwHdMNt20zHgD2w4u9kvP480w4dImMvXTIdAwAAEzx+ACB3yy1yHwMAT6O+UcO1Y+VK0zkkWkRk1SrTMWBWfvHXfnqCo7+/Pyv+TsLrzzPVkpvZAQAA8FQMAGbLVDnHLQAeo79cklfPnfPz8wnQq1esMB3H70ufHVbp5OT8XKbzwMnY6m8Urz8PVVvKy70MAAAAnokBQLrMVREXLpiOAScZrF6WBh99tCS+rYqOP3vWdJwrOcpLpj748cem88A52OpvD7z+PFQvWSOfXLxoOgYAACYwAAiUGtaO3383HQOF7Gv1qEy8dCnvPkcp3XXCBNNx/srqpfo52sTE6PEyhx0p7out/vbE68/DtJEIKcnnPgDAMzEA+EKVU6G//mo6BgqXfk9/KlMnT05J6bAuKsoGp///RfKhgIYRG7//Xm6RWmrK22+bzoOCRfG3N15/nkWvkKXSnc99AIBnYgDQXLfVSSdOmI6BQvK2GipLv/gid0CeT8700aNNx/k3pyv4jvQ7MHKk1JLXpPGGDabz4AZxj79L4fXnGdRi6a3Sjx83nQMAABMYAKzQb6knWAlwO6flWzX48OG8HK/nZWCPHiv2dqo5MM3+hz6tUW1Vf3XxYm7D3ApWTNeuskeKS8OffzadC9focvHXFa02eQsCArjH3zXw+vMQyyXWWsznPgDAMzEAmOOYLmP5IuA2Ln9hV0857lVvBwWl3N2+X2TooUOmY12r1J7B8dHxR4/qNdYB/VJIiB6r+sjrBw+azoV/UVQWyrRjx6SO1xc6sl07ir9r4vXn3vQvcpOjz2+/mc4BAIAJHj8A0C/LLJXMAMDl5W/1H5v7tvVm06YJj/oHhEfs3Gk61o1KuqVjn6hVO3bk7clpa93fpAlbk+1Jz5IN6vVt2/LOen2vo1u0SHy/w4nIkVu3ms6FG5P/+svtnvtFzn0NG8pZyZY5n31mOhduUEXVUadz6x8AwDN5/ADAkSfz5aMjR0znwDW6fKq/+Eis7vHGGzkBuZ/keLVtm79yZzpeQcv/uXLi82bnvPrgg7qC2q5bjB3L88sNufzvTw+WKlJlwoQ/7h1v3tyuh0zixvxxC9Hx4zkH8u7JKRcQwOvPtTny1NfyHJ/7AADPpEwHMK3rfZldpn937715d1mRjlW7dpnOg3+Q/0X7rPiquh9+mPex11ire0yMpxeuTotTuk/vXrGi926fRMfbI0dKXf2J1O/bV+aKr4wrXtx0Prfxl39/ju151VSviROXT+pUMzz8hx9Mx4MZvP5c1DDrJt3/nnsSW3VsGlXku+9MxwEAwJk8fgAQsimpYVxcsWKObb4PWtPOnpVECZQo5fF/L06Tv5K/X8+UV0+elHJyXKL379dH1UH93datEmGVVb+uXl3kpN9g67XU1CXxbVV0/NmzpmPbVY/uq/X07iVKXLr9Un/vpcHBlq8csKa0batmS08ZVr++/CrlZXq1alJNRci4MmWktv5Ahvn6ms5tzFX++7v4rGNu8UopKZn1Anb2rciKL/4erz9707PUUKlnWacr+Owo0rx48fxDH03nAgDAmSi6l4X1Su83476jR+WC9JZnbrnFdB6nq6M7yOcTJya+FuQV+dHw4abjAAAKVuix9DEzb5s4UQ2QZvrlF14wncfpOkmM5B46lBgRuCry2SpVTMcBAMAEjz8D4Ipqsk/m7d9vOoYxT6lBam/9+qZjAAAKh7pdxevdDRqYzmFMbflWD/Dgz3kAAIQBwH+lSGu58OOPpmMY85as1U0aNjQdAwBQSMK1lwz33EGvaqMeU5kMAAAAno0BwGX6aZUo4zz4MK8fJUZq33xzt6DUPbPYGgkAbqNTt5T4aR/ccUf++7zpPKZYeXqChHjuobEAAIgwALhCXRQR+fpr0zlMyzvrVSLvTLNmpnMAAAqGd3OfMV7zmzc3ncO4KlJa7ty503QMAABMYgBwmUrI/URV3rHDdA7T9AQVKBtbtjSdAwBQQHbIvdKa93Ut6lNVns95AIBnYwBw2cnPi9Y4MnfPHhkmX0mGBz8WaIvcLsf4oggAbuNXvVMqefD7+ioZK70uXCja4uTeskO5BQAA4NkYAFy2RrVVY1RurhxVk2TDrl2m8xhzXnfXBxs06Fg9dc/UoFKlTMcBAFyfznq1fkuXKSO/yUpZU7eu6TzGvK7KqBpff71kSc+ePXvm5ZmOAwCASQwA/qqZvkXaePAWwfVyq8zz9va+4NXY5zt/f9NxAADX6flL/Yt5BQZKBdkpLb28TMcxpqG+yzrkwZ/rAAD8CQOAv1BPy3syhC8Kslj5q9rBwaZjAACujzVcfWwV79TJdA7jPlT9HG04/A8AABEGAP+/e2S2DvryS9MxTFOtdB/dNTh4lB6lR2kH/04AwEXkv2+rivpDmRIUZDqPaWqFPK6e2LDBdA4AAOyAYvcXlxLzXs69f/Nmjz8MMFRKSHaFCls6NptUIatRI9NxAABXZ3Of5tUrJd9/f/77uOk8xlw+/M+38ckRN920davpOAAA2AEDgL9YsbdTzYFp2dkSJ2ekwebNpvMYt8Ix1NGBWwEAwFWoFo5ieirv23q5Kiuvf/nlkvievXr2unTJdB4AAOyAAcA/uV2/Lt+uW2c6hnFbJEO+DQkxHQMAcHVUA71YqvC+LbvlR9nO5zgAAH/GAOCfdPQqr+fwxUFtlXTp2bBh8Hcr581IqlzZdB4AwN/rPCS9X+xNt90m38os2eTBj/27zJEn89Wp9etN5wAAwE4YAPwDq4j3r17z1q+XMEmXWK1N5zEmUQIlSinHzNz++udHHzUdBwDw96wGqp/yeuyx/Pdt03lM0bPUUKlnWTLIp8GFLxkAAADwZwwA/kFy47YqPOLECblHBkhjHgso0dJERT3xhIjWWnvuF0sAsJ8/3pfVUl1FDvTvbzqNaWqR3K5CN29OUG3VYHXypOk8AADYCQOAf6FzxJJuK1aYzmGaGiLjZEbNmp2HZPSfUbZ5c9N5AAB/CG2ceXxG7zZtJE9+kPnVq5vOY5reIQ9Yq/jcBgDg7zAA+BcqWS6qsnyRyGfV0e+qn1hhAgC7UA31UrWQ9+V8+pwV5ziQlmY6BwAAdsQA4F+cmuTb8EiL9evlgExTY9lKKD3VIFnz8MM9uq/W07uXKGE6DgB4qvz3Yf2WbJfkhx4ynce4+9UjUvb334vmnn6j7IWNG03HAQDAjhgA/Is1qq0ao3JzJUGt0qkrV5rOY5rqLV3kYIkSF1XOYseS7t1N5wEAT3XJL+cnR8rDD+e/L5vOY9zHOlwqpacvWdKzZ8+eeXmm4wAAYEcMAK6STpQ71RpuBcinBunBOvvJJ03nAABPpW/TfeUz3oevuChDdQ22/gMA8L8wALhKuVNyP7mUlpgoLeSw9MvNNZ3HuIkyV81t1SqsUsbUGXtbtjQdBwA8ReestIUzbm7dWnbJK7KpWTPTeYy7/Lmco/OO5/ZPTTUdBwAAO2MAcJVW7O1Uc2Da8eMyRKZI3TVrTOexC/22Pis1hw83nQMAPIUuorzk65deMp3DNraogXJbVtaVz2kAAPCPGABcI71TYvTgxYtN57ALdUZOyH0hIZ0/yMyIm1mnjuk8AOCuQtqm1585tl49+VY2iH9QkOk8dqF2Wct1Hz6XAQC4GgwArpHWvgFejqVL9XiZI+dyckznMS5RAiVKKR1h+Vrb2QkAAIVFvSCp1sMvvZT/vms6j2n5n8O+90oNX6+EBNN5AABwBQwArlFy47YqPOLECblFkuTWVatM57GN2lJTzjz8cFiztAPTu1evbjoOALiLLkNT98TF3XWXGiuixvL0lXxql0yTEunpS5YE3f7UW7/9ZjoPAACugAHAdXK010l6w6JFpnPYRgXZKS29vPSDqp/jgaFDTccBAHdhxXs/ZMUPH57/Pms6j13oKD1WNrP1HwCAa8EA4Dpdumjdlrvnk0+kv1ySV8+dM53HLlSOvCm1+vXrrFfoGbpqVdN5AMBVhb6TUWdWzWrV5CE9T17s29d0HtvIVkNl6ZkzRdr5TbV+X7bMdBwAAFwJA4Dr9Mdpw6dP6wpqnmrOCsQV38sJ2ePnp9d5dZNXYmJMxwEAV6X2iH/Ol5Mm5b+vms5jG4/qSSpv4cIl8W1VdPzZs6bjAADgShgA3CA9zdomT8+aZTqH7UzUEXJbz55hz6dvnrmuTRvTcQDAVYRVypg6Y2/LllJPi2rTtavpPHajP7R25L00e7bpHAAAuCIGADcoeWHQDxGhX3whw+R22bh9u+k8trNbHtW73n57lB6lR2kH/94A4B/kv0/qZH235EyZwmn/f1FBDZXgHTuS0jq+EO3/1Vem4wAA4IooZAXlQ3VBfTN3rukYtuMtb0tugwbb6jRfdcugxx83HQcA7Grboy1/qljsiSfUGBH5tFEj03ls5y15Tn/77rumYwAA4MoYABQQvxPWzd4t339fVslY6XXhguk8dmOtVHepU6+91qP7aj29e4kSpvMAgF10rJ66Z2pQqVL6IQmVjePGmc5jO6Wlgxw/f16V8Hki2//DD03HAQDAlTEAKCBXnkM8Q0aq7u+/bzqP3agB8p00q1TpYvSlXY7HX3nFdB4AsAvvdV4Lfb8ZMULm6UmytmJF03lsp7oqKk/Mn5+g2qrB6uRJ03EAAHBlDAAKmKOx15HcM//5j56lhko9yzKdx27Ul7JROgwdGhq04s3pmU2amM4DAKaEbErrGhfXsKEck1160HPPmc5jN/mfo9a7skF1e+st03kAAHAHDAAK2PJ7O/R75qs9e1R9fUYqJCebzmM76+VWmeftLS859jsazJ//gF6t5+oiRUzHAgBn+WPLv5+fI0F9oP+zYIEaIU9IcR8f07nsRl2UfVJ02bLkQwENIzZ+/73pPAAAuAMGAIWlj3yijv3nP6Zj2JX6j3SWJffeW3pEtnXxkTFjTOcBAGfx+dWrp3fk66/LdlmrB993n+k8dmW9aFVUB/kcBQCgIDEAKCSJ/wlsFNHys8+klrwmjTdsMJ3HrvRAR315ZujQzllpC2fc3Lq16TwAUFg6D0nvF3tTixZyt6SqJYMGmc5jW8Okv+6/du2Vx+wCAIACwwCgkOn3ZZv0nDTJdA67UgP0JNnucOhT6oCEv/deyKakhnFxxYqZzgUABcV/e0adBUeLF9f7ZYQ6NH++VJCd0tLLy3Qu+3JcFHnzTdMpAABwRwwAClnSoYBTEfuWLtWzZIN6fds203lsa77Ulyo1ajim+FW3jsXEmI4DAAWl2P2637mOEydKnvwg86tXN53Htn6ShZK1aVNiqw6/RvolJZmOAwCAO2IAUOiUUkpr9b1jivX9qFGm09jeKf2klH/mmbA3M+rM8H/4YdNxAOB6hS7KOD9zSO/eOkBqy9NRUabz2J2+ICP08JEj8z83TecBAMAdMQBwksRW/r9FFUlMlPWyX4Z8+aXpPLY3RpeSRXPmXHlMFgC4iNBjKz6KbVe3rvLVK/WCWbNM57E7vUhuVUPWr0/aE1g9qumKFabzAADgzhgAOFt13Ul9N3q06Ri2105GyqKiRR3t1ULr908+Cdm0WsfNvPlm07EA4J/06JF2YPbgsmWlpNcbymvpUpkrvjKueHHTuWxvtuqjW736qukYAAB4AgYATpa4Iej2iNvT0vJPOTadx/YekDVSumpVx8ScUtaI998fpUfpUdrBv1sAttGjx+LFixd7eWVPVBNz1y1cqB7Wk6TbXXeZzmV3eqCaJj98+mnSswE7IzNXrTKdBwAAT0CRMkSfdnSTAy+8IGGSLrHc6/ivLup4GRcUtPV48w2VSo8bZzoOAOS7lF5m2W+bX3tNBkmo7h8QYDqP3elZaqjUsyyv763p8sDw4abzAADgSRgAGJLUyX9aVM0NG+Q5CZNWH31kOo/LSFRL9B0vvdR5SHq/OEevXqbjAPBcnT9IOxD7aZ8+erKupFOHDTOdx1WoHH1JpixYsDwy6PbI0I0bTecBAMCTMAAwLG+z94/Safhw6S+X5NVz50znsb1ECZQopax+csGa+P77oTXT98Zu7NjRdCwAnqNzqbThsdM7dNBb1XGVN2dO/vuS6Vy2l62GytIzZ7z8dC1Hu5dfNh0HAABPxBcWmwjdkfHYjEmvvqpG6Eel+NixpvO4jMuDE2uxfk7N9fdPXhj0Q0ToF1+YjgUzOlZP3TM1qFQp79e8q/jWCg6W85a3Ht2unTrj6Kqq1asnDfUyyataVZeSx/SIMmXyf506Le+r8SdPyhbVVbx+/FEmywHdcNs2iRYRWbVKml8o6dshJSWxVef1Tw4/c8b0zwkzOg9J7xd7U4sW+ri8pwZnZsopyZLyxYqZzuUy5sl+2f/SS4llAyMiJ06YYDoOAACeiAGATfTo8UXlyc2KFs1+/Uydol/s3i3P68Ey8447TOdyGferR6Ts77+rO9RHjt8feCDhUf+A8IidO03HQuHqsjtr3rQmNWtaz+a19Ro0fLhUkiqy7+GHC7yYlZYOcvz8eQmXwXrYwoVWL9XP0SYmJvlQQMOIjd9/b/rvAYXrymP9ZnsNVOGffipf6g/lt5tuMp3LZQyT9+Tuffty+uWNz5lYq9aKvZ1qDkzLzjYdCwAAT8QAwGZCK6eXmlHtoYdUI1kiw+LjTedxNXqW3C0bjhyxnvB6RN/fqlVKSod1UVH79pnOhYJxZVAWfCa86KRx4+Sovk0aDRok6+VWmeft7awcerzMkXM5OXKL1FJT3n77dAXfkX4HRo5co9qq/uriRdN/TygYXYam7omLu+uuvBe8fK31n3+uBsh30qxSJdO5XI0aoYaqXmFhCU0DdkaUTUoynQcAAE/GAMCmwqz0L2beuWyZdJHT+oUuXUzncTX6YzVUlv7wg9qiDuVGt2mT2Mr/t2e7HD5sOheuT0jljC0zm9ao4Vijd+ghS5fKEKkkv9eubTrXFbXkNWm8YYPX87qcY0u3bsvKBy0LDz9yxHQsXJ+wtZll31l+660iVgfvUp9/LhPlSfnuzjtN53I5w9RM+Xnx4sRWAcsiX+fQVgAA7IBDAO1qvSM4Z3J0tH5L9sv+U6dMx3E1+c/h1g11Ze/pn30WHJzVMjaWL/CuJuyxrJtnjG3QwLFI15Y969bZrvjn2yWvyKZmzXIPOT6zxm/cmL9l3HQsXJv8FX+K/w26fEtW7uEcL2vPoEGm4wAAgP9iB4DNhW5OT4+NffppNUZEqbg403lcVf6tAY5Mxx5H88BAzgiwtysr/vnFf6Ks1m+UL28619XSY1Ufef3gwbw9OW2t+5s0Se0ZHB8df/So6Vz4e/8d2DhaqNvS0tjqf4NKyyo5/uSTie8HxkSOnDPHdBwAAPBfDABsT2utlQq7lNFgZs3MTOkuMTKkfXvTqVzWAZmmxp48KceUv/48JCTxSMDAyOrr1pmOhT88oFfrubpIkdLrLn178YkNG2SiHJCm9eqZznW99CgReXDz5iITSj1xoX/r1kuWND80ZMOFC6Zz4Q9dZqQdmJHUtKk1Vs2Se1NTpYm0ksxy5UznclV6oJomP3z6aVIH/8SIN9u1E1FKKa1N5wIAAP/FLQC298cXKMcPXs/llYmKunIaOa7P7fKMHlmmjMTqatIsPT1kU8bY6ScDAkzHwh9Kz88Zd3Hd+PGuXvzzqTEi8mmjRhdLnxlUJO7FF03nwR9Ca6bvjd3YsaO1XlWWratXU/xv0OXHsaoR1nTrxwEDKP4AANgXAwAXsfzeDv2e+WrPHnWfipJKQ4aYzuPy5oqvjCte3NFT3nE0SErqPCS9X5yDQ6pMyX+c35VT/d3NFL1fHRgypNPilO7Tu1esaDqOp+r8QdqB2E/79JF4eUV9lpBQ4I+L9FAqXtWRc889l7gh6Pbo+L17TecBAAD/jAGAi0l4MSAuckBcnHwl4eKfmGg6j8urrT+QYb6+upaUte5buDDsl7QvZpZ67bVRepQepR28PpzEejavrdeg4cOd/Tg/Z1G9pYscLFHCe7dPouPtkSNN5/EUPXosXrx4sZdX51IZvWcOnzBBX1Rvq2c/+ECNkCekuI+P6Xwu7w6Vrh9eujThw4CqkRdmzzYdBwAA/DsKjouyknz3O7KefDL/cDvTeVxeogRKlFLylDqtY15+eWuvlqUqlk9JCQ5OTo6Nvekm0/HcVcfqqXumBpUqJZWkiux7+GHTeQpdXf2J1O/bN2xtQov3YkqWNB3HXfXokXZg9uCyZbMnlv7st0mpqfpB3U9XHT78yuscN6aTxEjuoUOOKEddK+Dpp03HAQAAV48BgItKbtxWhUecOOGIdLwnZfr3lzBJl1juuSwwF3W8jAsKcizxfUkt++qrzh9kZsTNrFPHdCx34/2adxXfWsHBHrMV+/KtJ2ppkZq5L3XqZDqOuwlpm15/5th69bJvVuty5mzaJIMkVPfnjI+ComepoVLPsqwdjvOq3eOP/3Fr2q+/ms4FAACuHgMAF5ew1H9c5JT0dHlBVunxb71lOo+7UQ/rSdLtrrt0cSvbGvHFF5wVUMDOW956dLt2pmM4m24gvfWDnvdzF5b8e/sdVWSzlvXr5ZCUlQnVqpnO5W4cNaS2SnjzzeRY/w0R961caToPAAC4dgwA3ETF7uVmeR158UU5K9ky57PPTOdxO5dXbq+cFfBYRs8ZY995J2RTUsO4OA9YuS4k6oyjq6rm+qf9X7PBsl9/4YE/dwHx355RZ8HR4sU7F0n/z4wG06frxWq32v3hhx6zk8TZ2spuqbJq1clTPh8dmTBihOk4AADg+jEAcBPvzmrcJDwiJyc3IneBdUevXnJavlWDDx82ncvt5N9DfEo/KeWfecbxk28v68C2bZ2HpPeLvalFC9PxXM5efUg/7IErtb9KeZnugT/3DQrZlJkRN7NVq6Kj9bJzpbZt0wFSW56OijKdy23tkeLS8Oefc6bndcqZ/vDDa1RbNUbl5pqOBQAArh8DADeT2jM4Pjr+6FE9zPG9teOhh+Rr9ahMvHTJdC63NV/qS5UaNazharNK+fzzsPfT02e2i4tjZ8BVSlaHJLVUKdMxnG6IVJU7Spc2HcPuHtCr9VxdpEj+Kf6OZ6za1tpPP5U8+UHmV69uOp/bqiE3S83sbMcgfbv80r37ir2dag5MO37cdCwAAHDjGAC4qaRO/tOiam7YINtlgo4bMsR0HnenBuhJst3hkCUiusfTTzu6+d1i7frqq7C1mWVnzm7c2HQ+27r8GEbTMZzuezkhe/z8TMewqy4z0g7MSGratNRnl6Iv/rply5VT/CvITmnp5WU6n9u7Q5qrns8+uzwy6PbI0I0bTccBAAAFhwGAm0ssGfBkVMD06XJe7pGSc+aYzuMx6uvn5J5atXQpy1+fXL8+dHX6NzOS3nijR/fVenr3EiVMxwPsJP9xkKHH0sfMvG3iROuUWikd1q1T/5HOsuTee03n8xS6lsRIblxc4sDASxG/zpplOg8AACh4DAA8RMVq5X5xnI2IkBpys2zJzDSdx1OoEfKEFPfxUW/JQTn44osXp1/6yVF8z57QzenpsbFPP92jx+LFixezognPMkqP0qO0wxF2Kb3+zLF9+/pM9H7I583vvlMDpJl++YUXZL3cKvO8vU3n9BR6lnSV0unpp9/wXXn0mWeeMZ0HAAAUHgYAHiL/kMCchLySOT937y4V1FAJ3rHDdC5PowbId9KsUiU1RkSpuLjsXmWe/nXQxo1hz6dvnrmuTRvT+YDCFJqa+UzsnmbNtr7U4oGKm9atk+4So8vPny/z9CRZW7Gi6Xwep560Um99802RaMdyx+levTjkDwAA98cAwMP8cZjT6dN5L3g9L9s7ddJjVR95/eBB07k81gK9SEY2bCjfywm9Y82asI/Tj8+YmZQUHJzVMjb2zjtNxwNuxB9Px7jtts6OjOEzkhYsUIctX/XQ+vWyS16RTc2amc7nsS4/JUadk2jreMeOS+L9A8IjTp0yHQsAABQ+ZToAzOrSJT09NrZRI+txuaRGrlmT/7x707k83uVTuLWPvCC75s3zys2b6fB9883lkzrVDA//4QfT8QpKWFh6+owZWpvOYUpiYmBgZKRym/fhsGZpB6Z3r15djjqCHaeGDZOH9Dx5sW9fDj20iWw1VJaeOaPSZIRVuk2bBBXQKzp+2zbTsQAAgPOwA8DDLV8eGBgVtXmzelyv1WO6dJFh8pVkXLxoOpfHu1yY1C4ZLt7h4XkveD9k1dmzJ3+HAE8XgB2EHlvxUWy7unXzV/ili1rpeH/3bqmrJ0m3AQMo/jZx+XGwqrjqIrV69KD4AwDgudxm5QkFI2xtZtnYi2FhupTlr6bFx+cfYmc6F/5BaVklx9ets0o61qiHRo1KjvXfEHHfypWmY10tdgC41g6AkE2ZGXEzW7Vy7LUaWDJ8uJyVN2R6cLAkSqBEuc7P4Sn0eJkj53JyHBfVLvXEQw8lNA3YGVE2Kcl0LgAAYA5f2PC3QhdlnJ85pHdv9ZY+qX95/32ev+0i3lZDZekXX8go3Ulaz57td8F3grVj8eIl8W1VdPzZs6bj/RUDAHsOAMLWJrR4L6ZkSb216Jkcv5491SF9k2751FPcu+8ifpE6si4vT9fWH8vzffokzQ4aEtlg8WLTsQAAgHm2++IJewmrkf577JHHH9drVRu1f84cNUBPku0Obh1xFfm3dMRIslqflKTW6Aeske++m3A6cEJk1MqVIkopZa6AMwCwxwDgylkgD4k44p9+WneT5Xpwnz6qt3SRgyVKmM6HqxQm6RKrtZyXaepweHjiwMBLEb/OmmU6FgAAsA/jXzzhGsKapR2YkfTMM/KUeltenjqVLb+uTU+WVyVyzx4VrS6o7vPmeavcT7wqvf/+0rRONQe847ynQjAAcO4AIP9UfquB6qe8HntMFdNfSni/fjJf6kuVGjVM/33gOl0u/jpexqnsZ55JSgssHrEnNtZ0LAAAYD8UOFyT0GMZA2PbPfqomqsbqJS5c2W93CrzvL1N50IB2abelm937VInpYwqkpQkYt1u3Z6VdfKU34RjUZ9+WtDPCWcAULADgFF6lB6lHY7tXVtk3DKjQYO8ahIk0qGDOiHD1InQUHlAcmRJixYM8NzE5a3+UkOmSM2nn058PzAmcuScOaZjAQAA++ILIK5L5yHp/eIcvXpZ/eSCNfH99zks0M19JWvF/9dfpbFkqparVsknclGik5OVj+/WC68mJiaotmqwOnnyWn9bBgDXNwDw355RZ8HR4sWLZYuc923XTn+nJ0n3kBAdIHfr20JD1QD5TppVqmT650PhyD/cT6bq+6X9o49yjz8AALhaDABwQ0LXpSXPDO3cWS1VlfRzixbx2C8P00IOS7/cXKmuBsudO3Zoh+4iWWvXSqquK5fWrdMRXrUdX27YkNzYPyA84sCBv/5yBgB/PwD447T922/3+sj6SKKaN9cvyIi8DS1byjrVWHVu2VIm6V3Svl49Duf0MJfP9NDJskra9eiRNCFwVeSzycmmYwEAANfBAAAFImRTxtjpJwMC1L36iOPzTz7h8DD8H/k7CPpIF4nZskWK6PpybutW2amypPWwYabjGVNHd5DPJ06USY768m7DhlJWd5GjDRpIE2klmeXKmY4Hm8hWQ2XpmTM6RESkS5ekZwN2RmauWmU6FgAAcD0MAFCgQo+t+Ci2Xd266gHH7eqN5GSpKedky223mc4FAC7ntHyrBh8+bE3Sn6opoaHJjYOWhYdv2WI6FgAAcF08zg0FKumWjn2iVu3YIbMdYblHmjXTs2SDen3bNtO5AMBlpMoUmbJzpzXJca96u3lzij8AACgo7ABAoerRfbWe3r1EieznLi1xTFu8WCZKaVnWsaPpXABgOzXkZtmSmen3k+NXR6MePZbE+weER5w6ZToWAABwH+wAQKFaEt9WRcefPVtxfrlqjuWdO8swSdH933vPdC4AsAtdS2IkNy7u1CTfhkff7dSJ4g8AAAoLOwBgROjm9PTY2KefVj3Uo+rNd96R2voDGebrazoXABS6GnKz1MzOlvNKqZeGD0+cEdAwYuOUKaZjAQAA98cAAEaFrc0sO3N248ay0npCp37yiWwWf/G//XbTuQCgoOmxqo+8fvCgHFa99coePZI6+U+Lqrlhg+lcAADAc3ALAIxKbOX/W8RTmzblvJ/3dM75xo0lXobL5JUrTecCgAJzVrJlzmefSSWvu7xTGjem+AMAAFMYAMAWVuztVHNg2vHjFaPLzXI837GjfC7D9a2TJ0uYpEus1qbzAcDV0rPUUKlnWepTNU/9GBNzaqVv6NGN7dsn3dJ+44C6x46ZzgcAADwXtwDA1jqXShseO71DBz1RfaWsefMkVYaLd+XKpnMBwP+nqCyUaceOyU96rFrRr1/ihqDbI25PSzMdCwAAIB87AGBrCaeDYqKis7Ksxr4rHT7160trNVSWJiSYzgUA+fQSWSinly1zjPZ6MK/YffdR/AEAgF2xAwAuKexSev2ZY/v2lRQZp6fGxspc8ZVxxYubzgXAA6ySsdLrwgV5TL2jgl56iVP8AQCAq2AHAFxSom/gtoiRCxY47vH6Na9aw4byqMySiDVrTOcC4Mbaym6psmqV1NYLrafr1qX4AwAAV8MOALgJrbVWKuxSRoO4cY89JndIqO4zebI0kVaSWa6c6XQAXNABmabGnjyp35NnrFeHD09qFBAQGTlrlohSSnE4KQAAcD0MAOCWOi1O6T69e8WK3u97H/T6fOpUUTJGj+7Rw3QuAC6gjzQUlZyc18A7RSpHRKTc3b5fZOihQ6ZjAQAA3CgGAPAInR0Zw2ckde2qS+ox8s3kyfKArJHSVauazgXABobJe3L3vn3KV+1W9Z97LqFpwM6IsklJpmMBAAAUNAYA8Cg9ui9etHiRr292+TI1fvtPZKTsk8d16XHjxE9Pkm4lS5rOB8AJ+sslefXcOd1FQuT4pEmnxVeKyIQJa1Rb1V9dvGg6HgAAQGFhAACPFrY2s+w7y2+9VfZbC32mjhqlA9RQPf6pp9QAPUm2OzgkE3AHYZIusVpLgqxXv8THqxpyj3Xp+ecTJgfOi/r9559NxwMAAHAWBgDAn3SumlEnbub991sZcsC658031VC9WHa3bm06F4BrpweqafLDp5/KpLw2VuCwYUlpHV+I9v/qK9O5AAAATGEAAPwPIZsyM+Jmtmrl2Ge9a4WPHy8fyACZ+cADpnMB+Bu15DVpvGGD6qZ+V3e9/jr38gMAAPxfDACAa9C5VNrw2OkdOuhq6pha9cYbcof0lg6NG5vOBXikCmqoBO/YIcdkkk4aPz4xKSAwKnrJEtOxAAAA7IoBAHBdtNZaqZBNGXEznu7c2REvH6mnhw+XXfKKbGrWzHQ6wB3pRXKrGrJ+vdrseMD6PSYmsVWHXyP9kpJElFJKa9P5AAAA7I4BAFCAunRJT4+NbdRIJ6pV6rZBg3RTPUgW9ekjFWSntPTyMp0PcAV6lhoq9SxLrdarZEdqqgxWC6XDhAmJRwIGRlZft850PgAAAFfFAAAoRF12Z82b1qRmzbz5eQu8+g4ZoqZJtjzSt6+0k5GyqGhR0/kAWygtHeT4+fNSXRWVJ+bPt96VDarbW28lHwpoGLHx++9NxwMAAHAXDAAAJ+rRPTMjbmbp0hdfsnSe1auXelWeUz4REeItb0tugwam8wHOoJ+XBOmxe7cslxl68fz5Xk97zbXmzp69/N4O/Z756tdfTecDAABwVwwAABvIv3XAekjEEf/00/KBGqq9evcWPz1JupUsaTofcF2y1VBZeuaMypROMnD5cilhiT6wYEHC6aCYqOisLNPxAAAAPA0DAMCGwtYmtHgvpmRJ6V8kJbtvt276A3lYDezZU4pKGbnf31+NkCekuI+P6ZyAiIh8rR6ViZcuSQVpropnZuo91h26+aJFRdr5TbV+X7ZsSXxbFR1/9qzpmAAAAJ6OAQDgQoKDk5NjY2+6yWuZzwjHidBQWSqZukKPHrqWPCNnAwMZDKBQ/SJ1ZF1entSQKVJzwwYpoXqp5CVLcjJzS1wq+9FHK/Z2qjkw7fhx0zEBAADw9xgAAG6gY/XUPVODypf3buC91WdFcLAaJB/LKx07yhr5XOr5+8uX+kP57aabTOeEa9DDpYzM/+03OSW36QWZmWqQFJWSK1ZYC33LeCWkpCQ3bqvCI06cMJ0TAAAA14YBAODGevRYvHjxYi+v7LVljv7asFkz/bLMksiOHaWFniRTg4KkihoqvzdooAboSbLd4TCdF85x5TF7AbqR/GfLFpkuGRK6YoU1XRdV5VasKJp7+o2yFzZuXLKkZ8+ePfPyTOcFAABAwWAAAHiw/LMGVCe/1tkl7r/fOqUmqKhWrVQRVVfOtWwpPrqUXGrZkscWuhY9XubIuZwcyZEnJHjHDvlJFoq1bp2aq3rrT9eudUx0HLHmrVrFqfsAAACehQEAgH/Uo/viRYsX+fpe8Cn18m/FGjVylHEskXFNm8r3upweWLeuHJdRsqxuXflBvpdZ993HoKCQlZYOcvz8edkhT8r2XbtkupTSH27fLh+qfo42O3fqUDXH+uDLLystu+lxr1WbN787q3GT8IicHNOxAQAAYA8MAADcsCu3GgwqWfVEWPXqEuP1u7xXt66+RbZLq9q11Z16g+P1O++U3VJD31etmvwst6rXq1WTR+UnXaNSJUmUQIlSnvN+FCbpEqu1fCB3qO+PHJHb5LB+ef9+9aESabBvn5WnJ0jIvn2O1nJE9f/6azXLKyP3mx07fEb+VqzCCz/8wNZ8AAAAXA/P+cINwHb+OLzQz89nnjrpvbxqVRmqKjp+qVZN3+b4Qt9WsaJMs26VfuXKyS5VVrrffLPykTjtX768tJDejlrlyum9KkjPKVdOOfQUOXrTTXJUUqVCsWJX/oDFskc+KVVKblEHpY2Xl35O95BiPj6qt3SRgyVK5P/P9EJZLlXOnlVvqyVyPidHjukq8llenvSUmvLQ6dNXfr8H5axEnTund6l1MvPkSblDd5UvT5yQj/S7Evnrr1JVfS9rTpyQWvo3iT9xQp5xHJZ5v/6qfraaq5+PHpVJ+qhVYf/+nH66TG6XH3/849T87GzT1wEAAAAAAAAAAAAAAAAAAAAAAAAAAAAAAAAAAAAAAAAAAAAAAAAAAAAAAAAAAAAAAAAAAAAAAAAAAAAAAAAAAAAAAAAAAAAAAAAAAAAAAAAAAAAAAAAAAAAAAAAAAAAAAAAAAAAAAAAAAAAAAAAAAAAAAAAAAAAAAAAAAAAAAAAAAAAAAAAAAAAAAAAAAAAAAAAAAAAAAAAAAAAAAAAAAAAAAAAAAAAAAAAAAAAAAAAAAAAAAAAAAAAAAAAAAAAAAAAAgD/7f4KoAl/YfSGwAAAAJXRFWHRkYXRlOmNyZWF0ZQAyMDIzLTA0LTA1VDE0OjUwOjEyKzAwOjAw0QEtUwAAACV0RVh0ZGF0ZTptb2RpZnkAMjAyMy0wNC0wNVQxNDo1MDoxMiswMDowMKBcle8AAAAodEVYdGRhdGU6dGltZXN0YW1wADIwMjMtMDQtMDVUMTQ6NTA6MTIrMDA6MDD3SbQwAAAAAElFTkSuQmCC;direction=east;" parent="K0Yor81gI7pNhZ5WIHlw-22" vertex="1">
          <mxGeometry x="21.721832669322712" width="47.826086956521735" height="47.826086956521735" as="geometry" />
        </mxCell>
        <mxCell id="K0Yor81gI7pNhZ5WIHlw-26" value="" style="edgeStyle=segmentEdgeStyle;endArrow=classic;html=1;curved=0;rounded=0;endSize=8;startSize=8;startArrow=none;startFill=0;" parent="1" edge="1">
          <mxGeometry width="50" height="50" relative="1" as="geometry">
            <mxPoint x="525" y="195" as="sourcePoint" />
            <mxPoint x="469" y="141" as="targetPoint" />
            <Array as="points">
              <mxPoint x="525" y="141" />
            </Array>
          </mxGeometry>
        </mxCell>
        <mxCell id="K0Yor81gI7pNhZ5WIHlw-49" value="&lt;font style=&quot;font-size: 13px;&quot;&gt;4) Tạo VTK&lt;/font&gt;" style="edgeLabel;html=1;align=center;verticalAlign=middle;resizable=0;points=[];labelBackgroundColor=none;" parent="K0Yor81gI7pNhZ5WIHlw-26" connectable="0" vertex="1">
          <mxGeometry x="-0.1916" y="-1" relative="1" as="geometry">
            <mxPoint x="-118" y="-48" as="offset" />
          </mxGeometry>
        </mxCell>
        <mxCell id="K0Yor81gI7pNhZ5WIHlw-27" value="" style="edgeStyle=segmentEdgeStyle;endArrow=classic;html=1;curved=0;rounded=0;endSize=8;startSize=8;startArrow=none;startFill=0;" parent="1" edge="1">
          <mxGeometry width="50" height="50" relative="1" as="geometry">
            <mxPoint x="361" y="139" as="sourcePoint" />
            <mxPoint x="307" y="199" as="targetPoint" />
          </mxGeometry>
        </mxCell>
        <mxCell id="K0Yor81gI7pNhZ5WIHlw-50" value="&lt;font style=&quot;font-size: 13px;&quot;&gt;5) Gửi VTK&lt;/font&gt;" style="edgeLabel;html=1;align=center;verticalAlign=middle;resizable=0;points=[];labelBackgroundColor=none;" parent="K0Yor81gI7pNhZ5WIHlw-27" connectable="0" vertex="1">
          <mxGeometry x="0.0337" y="1" relative="1" as="geometry">
            <mxPoint x="-48" y="22" as="offset" />
          </mxGeometry>
        </mxCell>
        <mxCell id="K0Yor81gI7pNhZ5WIHlw-38" value="6) Kênh kết nối để hiện thị dữ liệu" style="html=1;shadow=0;dashed=0;align=center;verticalAlign=middle;shape=mxgraph.arrows2.twoWayArrow;dy=0.53;dx=21.67;fillColor=#dae8fc;strokeColor=none;" parent="1" vertex="1">
          <mxGeometry x="310" y="166" width="213" height="34" as="geometry" />
        </mxCell>
        <mxCell id="K0Yor81gI7pNhZ5WIHlw-44" value="" style="endArrow=classic;startArrow=classic;html=1;rounded=0;" parent="1" edge="1">
          <mxGeometry width="50" height="50" relative="1" as="geometry">
            <mxPoint x="684" y="240" as="sourcePoint" />
            <mxPoint x="564" y="240" as="targetPoint" />
          </mxGeometry>
        </mxCell>
        <mxCell id="K0Yor81gI7pNhZ5WIHlw-45" value="&lt;font style=&quot;font-size: 13px;&quot;&gt;2b) Trả lời yêu cầu&lt;/font&gt;" style="edgeLabel;html=1;align=center;verticalAlign=middle;resizable=0;points=[];labelBackgroundColor=none;fontSize=13;" parent="K0Yor81gI7pNhZ5WIHlw-44" connectable="0" vertex="1">
          <mxGeometry x="0.6538" y="3" relative="1" as="geometry">
            <mxPoint x="34" y="-22" as="offset" />
          </mxGeometry>
        </mxCell>
        <mxCell id="K0Yor81gI7pNhZ5WIHlw-47" value="" style="endArrow=classic;startArrow=classic;html=1;rounded=0;entryX=0.5;entryY=1;entryDx=0;entryDy=0;labelBackgroundColor=none;" parent="1" target="dAge2w72YjUi1ltIyUB8-1" edge="1">
          <mxGeometry width="50" height="50" relative="1" as="geometry">
            <mxPoint x="522" y="360" as="sourcePoint" />
            <mxPoint x="512" y="312.07000000000005" as="targetPoint" />
          </mxGeometry>
        </mxCell>
        <mxCell id="K0Yor81gI7pNhZ5WIHlw-48" value="&lt;font style=&quot;font-size: 13px;&quot;&gt;3) Gửi yêu cầu + &lt;br style=&quot;font-size: 13px;&quot;&gt;Nhận dữ liệu&lt;br&gt;&lt;/font&gt;" style="edgeLabel;html=1;align=center;verticalAlign=middle;resizable=0;points=[];labelBackgroundColor=none;fontSize=13;" parent="K0Yor81gI7pNhZ5WIHlw-47" connectable="0" vertex="1">
          <mxGeometry x="0.454" y="-1" relative="1" as="geometry">
            <mxPoint x="-74" y="17" as="offset" />
          </mxGeometry>
        </mxCell>
        <mxCell id="dAge2w72YjUi1ltIyUB8-1" value="DApp của HPU" style="text;html=1;strokeColor=none;fillColor=none;align=center;verticalAlign=middle;whiteSpace=wrap;rounded=0;fontFamily=Tahoma;fontStyle=1;fontSize=13;" parent="1" vertex="1">
          <mxGeometry x="482" y="277" width="80" height="30" as="geometry" />
        </mxCell>
        <mxCell id="4IC52hr4PQfnmfjc765v-2" value="&lt;font style=&quot;font-size: 13px;&quot;&gt;HPU&lt;/font&gt;" style="text;html=1;strokeColor=default;fillColor=none;align=center;verticalAlign=middle;whiteSpace=wrap;rounded=1;fontFamily=Tahoma;fontStyle=1" parent="1" vertex="1">
          <mxGeometry x="690" y="214" width="50" height="26" as="geometry" />
        </mxCell>
        <mxCell id="IFqryok0byd0GUK2o1Lt-38" value="&lt;font style=&quot;font-size: 13px;&quot;&gt;Các nút đầy đủ&lt;/font&gt;" style="text;html=1;align=center;verticalAlign=middle;whiteSpace=wrap;rounded=1;fontFamily=Helvetica;fontStyle=1;fontSize=15;strokeColor=default;" parent="1" vertex="1">
          <mxGeometry x="480" y="368.36" width="91" height="31.64" as="geometry" />
        </mxCell>
        <mxCell id="4IC52hr4PQfnmfjc765v-9" value="" style="endArrow=classic;html=1;rounded=0;" parent="1" edge="1">
          <mxGeometry width="50" height="50" relative="1" as="geometry">
            <mxPoint x="150" y="239" as="sourcePoint" />
            <mxPoint x="260" y="239" as="targetPoint" />
          </mxGeometry>
        </mxCell>
        <mxCell id="4IC52hr4PQfnmfjc765v-10" value="1) Yêu cầu truy cập EMR" style="edgeLabel;html=1;align=center;verticalAlign=middle;resizable=0;points=[];fontSize=13;labelBackgroundColor=none;" parent="4IC52hr4PQfnmfjc765v-9" connectable="0" vertex="1">
          <mxGeometry x="-0.8434" y="-1" relative="1" as="geometry">
            <mxPoint x="41" y="19" as="offset" />
          </mxGeometry>
        </mxCell>
      </root>
    </mxGraphModel>
  </diagram>
</mxfile>
